<?xml version="1.0" encoding="utf-8"?>
<!-- Generator: Adobe Illustrator 24.2.3, SVG Export Plug-In . SVG Version: 6.00 Build 0)  -->
<svg version="1.1" id="Layer_1" xmlns="http://www.w3.org/2000/svg" xmlns:xlink="http://www.w3.org/1999/xlink" x="0px" y="0px"
	 viewBox="0 0 106 103" style="enable-background:new 0 0 106 103;" xml:space="preserve">
<style type="text/css">
	.st0{fill:#EAEAEA;}
	.st1{fill-rule:evenodd;clip-rule:evenodd;fill:#FABE00;}
	.st2{fill-rule:evenodd;clip-rule:evenodd;fill:#450064;}
	.st3{fill-rule:evenodd;clip-rule:evenodd;fill:#00CCBE;}
	.st4{fill-rule:evenodd;clip-rule:evenodd;fill:#FFFFFF;}
	.st5{fill:#FFFFFF;}
</style>
<path class="st0" d="M13.8,28.2c-4.4,6.8-6.5,14.5-6.5,23.1c0,8.6,2.2,16.4,6.5,23.3c0.1,0.1,0.1,0.4,0.2,0.5c1.8,2.7,4,5.4,6.5,7.9
	c8.9,8.7,19.7,13.1,32.3,13.1S76.2,91.8,85.2,83c2.5-2.5,4.7-5.2,6.5-7.9c4.6-7,6.9-14.9,6.9-23.7c0-12.3-4.5-22.8-13.4-31.5
	c-8.9-8.6-19.7-13-32.3-13s-23.3,4.4-32.3,13C17.9,22.5,15.6,25.3,13.8,28.2z"/>
<path class="st1" d="M24.6,61.4l0.6-8.3l-7.3,4.1l-7.8-3.1l1.7,8.2l-5.4,6.3l8.4,1l4.5,7l3.4-7.5l8.2-2L24.6,61.4z"/>
<path class="st1" d="M72.6,18.9l4.2,8.1L73,35.5l9.2-1.7L89,40l1.4-9l8.1-4.7l-8.3-4l-2.1-9.3l-6.3,6.9L72.6,18.9z"/>
<path class="st1" d="M78.2,57.3l4.1,3.1l0.1,5.2l4.2-3l4.9,1.4l-1.4-4.9l2.9-4.3l-5.1,0l-3.3-4.2l-1.5,5L78.2,57.3z"/>
<path class="st2" d="M65.8,17.2c-0.8-3.6-3-5.2-6.7-4.4L30.5,19c-3.6,0.8-5.1,3-4.3,6.7l13.2,60.7c0.8,3.6,3,5.2,6.7,4.4l28.6-6.2
	c3.6-0.8,5.1-3,4.3-6.7L65.8,17.2z"/>
<path class="st3" d="M43.7,86.6l31.7-7.2L63.6,29.2l-31.3,6.7L43.7,86.6z"/>
<path class="st4" d="M46.6,68.4l15.4-0.1l1.7-8.3l-1.8-15.6l-6,0.7L57,55.6l-3.8-8.3l-5.5,2.5l3.8,8.3l-8,3.6L46.6,68.4z M57,60.2
	c0-0.2,0-0.3,0.1-0.5c0.1-0.2,0.3-0.5,0.5-0.5c0.4-0.1,0.8,0,1.1,0.3c0.3,0.3,0.3,0.7,0.1,1.1c-0.1,0.4-0.7,0.6-1.3,0.5
	C57.1,61,57,60.5,57,60.2L57,60.2z M53.5,59.5c-0.3,0.1-0.8,0.3-0.8,0.7l0,0c0,0.7,0.3,1.1,0.7,1.2c0.5,0,0.9,0,1.1-0.4
	c0.2-0.3,0.3-0.7,0.1-1.1c-0.1-0.3-0.5-0.4-0.7-0.4C53.7,59.5,53.6,59.5,53.5,59.5z"/>
<path class="st5" d="M31.6,30.8c-0.3-1.2,0.5-2.4,1.8-2.7l27-5.6c1.2-0.3,2.4,0.5,2.7,1.8l0.3,1.6L32,32.5L31.6,30.8z"/>
</svg>
