<?xml version="1.0" encoding="UTF-8"?><svg id="a" xmlns="http://www.w3.org/2000/svg" viewBox="0 0 24 24"><defs><style>.b{fill:#333;}</style></defs><path class="b" d="M21.4,10.75h-.4v-.5c0-1.38-1.12-2.5-2.5-2.5h-1.5v-1.5c0-.55-.45-1-1-1H3c-.55,0-1,.45-1,1v10c0,.55,.45,1,1,1h1.07c.22,.86,1,1.5,1.93,1.5s1.71-.64,1.93-1.5h9.14c.22,.86,1,1.5,1.93,1.5s1.71-.64,1.93-1.5h.47c.33,0,.6-.27,.6-.6v-5.3c0-.33-.27-.6-.6-.6Zm-2.9-2c.83,0,1.5,.67,1.5,1.5v.5h-3v-2h1.5ZM6,17.75c-.55,0-1-.45-1-1s.45-1,1-1,1,.45,1,1-.45,1-1,1Zm8.5-1.5H7.93c-.22-.86-1-1.5-1.93-1.5s-1.71,.64-1.93,1.5h-1.07V6.25h13v10h-1.5Zm4.5,1.5c-.55,0-1-.45-1-1s.45-1,1-1,1,.45,1,1-.45,1-1,1Zm2-1.5h-.07c-.22-.86-1-1.5-1.93-1.5s-1.71,.64-1.93,1.5h-.07v-4.5h4v4.5Z"/><circle class="b" cx="8.5" cy="9.25" r=".5"/><circle class="b" cx="10.5" cy="9.25" r=".5"/><path class="b" d="M12,9.75c-.28,0-.5,.22-.5,.5v.5c0,1.1-.9,2-2,2s-2-.9-2-2v-.5c0-.28-.22-.5-.5-.5s-.5,.22-.5,.5v.5c0,1.65,1.35,3,3,3s3-1.35,3-3v-.5c0-.28-.22-.5-.5-.5Z"/></svg>