<?xml version="1.0" encoding="UTF-8"?><svg id="a" xmlns="http://www.w3.org/2000/svg" viewBox="0 0 24 24"><defs><style>.b{fill:#333;}</style></defs><path class="b" d="M21.5,15.5h-1.5V6.5c0-.55-.45-1-1-1H5c-.55,0-1,.45-1,1V15.5h-1.5c-.28,0-.5,.22-.5,.5v.5c0,1.1,.9,2,2,2H20c1.1,0,2-.9,2-2v-.5c0-.28-.22-.5-.5-.5ZM5,6.5v0h14V15.5H5V6.5h0Zm15,11H4c-.55,0-1-.45-1-1h7.5c0,.28,.22,.5,.5,.5h2c.28,0,.5-.22,.5-.5h7.5c0,.55-.45,1-1,1Z"/><path class="b" d="M9.5,12.5h4c.28,0,.5-.22,.5-.5s-.22-.5-.5-.5h-4c-.28,0-.5,.22-.5,.5s.22,.5,.5,.5Z"/><path class="b" d="M9.5,10.5h7c.28,0,.5-.22,.5-.5s-.22-.5-.5-.5h-7c-.28,0-.5,.22-.5,.5s.22,.5,.5,.5Z"/><circle class="b" cx="7.5" cy="10" r=".5"/><circle class="b" cx="7.5" cy="12" r=".5"/><path class="b" d="M16.5,11.5h-1c-.28,0-.5,.22-.5,.5s.22,.5,.5,.5h1c.28,0,.5-.22,.5-.5s-.22-.5-.5-.5Z"/></svg>