<?xml version="1.0" encoding="UTF-8"?><svg id="a" xmlns="http://www.w3.org/2000/svg" viewBox="0 0 24 24"><defs><style>.b{fill:#333;}</style></defs><path class="b" d="M16,14h-1.14l-.39-1.16c-.07-.2-.26-.34-.48-.34s-.41,.14-.48,.34l-.39,1.16h-1.14c-.2,0-.38,.12-.46,.31s-.04,.4,.11,.55l.78,.78-.4,1.2c-.07,.2,0,.43,.17,.56,.09,.07,.2,.1,.3,.1,.1,0,.19-.03,.28-.08l1.22-.81,1.22,.81c.18,.12,.41,.11,.58-.02,.17-.13,.24-.35,.17-.56l-.4-1.2,.78-.78c.14-.14,.19-.36,.11-.55-.08-.19-.26-.31-.46-.31Z"/><path class="b" d="M16,8h-1.14l-.39-1.16c-.07-.2-.26-.34-.48-.34s-.41,.14-.48,.34l-.39,1.16h-1.14c-.2,0-.38,.12-.46,.31s-.04,.4,.11,.55l.78,.78-.4,1.2c-.07,.2,0,.43,.17,.56,.09,.07,.2,.1,.3,.1,.1,0,.19-.03,.28-.08l1.22-.81,1.22,.81c.18,.12,.41,.11,.58-.02,.17-.13,.24-.35,.17-.56l-.4-1.2,.78-.78c.14-.14,.19-.36,.11-.55-.08-.19-.26-.31-.46-.31Z"/><circle class="b" cx="6.5" cy="18.5" r=".5"/><circle class="b" cx="6.5" cy="16.5" r=".5"/><path class="b" d="M20.5,20h-.5V6.54l-.03-.28-3.09-3.09-.22-.18H4.6c-.33,0-.6,.27-.6,.6V20h-.5c-.28,0-.5,.22-.5,.5s.22,.5,.5,.5H20.5c.28,0,.5-.22,.5-.5s-.22-.5-.5-.5ZM5,4h3V20h-3V4Zm4,16V4h7.29l2.71,2.71v13.29H9Z"/><path class="b" d="M6.5,5c-.28,0-.5,.22-.5,.5v1c0,.28,.22,.5,.5,.5s.5-.22,.5-.5v-1c0-.28-.22-.5-.5-.5Z"/></svg>