<?xml version="1.0" encoding="UTF-8"?><svg id="a" xmlns="http://www.w3.org/2000/svg" viewBox="0 0 24 24"><defs><style>.b{fill:#333;}</style></defs><path class="b" d="M10.01,8.5c0-1.1-.9-2-2-2s-2,.9-2,2,.9,2,2,2,2-.9,2-2Zm-3,0c0-.55,.45-1,1-1s1,.45,1,1-.45,1-1,1-1-.45-1-1Z"/><path class="b" d="M18.01,16.5c-1.1,0-2,.9-2,2s.9,2,2,2,2-.9,2-2-.9-2-2-2Zm0,3c-.55,0-1-.45-1-1s.45-1,1-1,1,.45,1,1-.45,1-1,1Z"/><path class="b" d="M20.51,7.5h-1c-1.93,0-3.5,1.57-3.5,3.5v1.25c0,.69-.56,1.25-1.25,1.25h-.25c-1.1,0-2,.9-2,2,0,.55-.45,1-1,1h-3.03c.14-.07,.26-.18,.36-.32l3.32-4.84c1.44-2.1,1.08-4.94-.83-6.62-1.88-1.65-4.73-1.65-6.61,0-1.92,1.67-2.27,4.52-.83,6.62l3.32,4.84c.14,.2,.34,.34,.57,.4-.14,.09-.24,.24-.24,.42,0,.28,.22,.5,.5,.5h3.5c1.1,0,2-.9,2-2,0-.55,.45-1,1-1h.25c1.24,0,2.25-1.01,2.25-2.25v-1.25c0-1.38,1.12-2.5,2.5-2.5h1c.28,0,.5-.22,.5-.5s-.22-.5-.5-.5Zm-15.82,3.28c-1.15-1.68-.86-3.96,.67-5.3,1.51-1.32,3.79-1.32,5.29,0,1.53,1.34,1.82,3.62,.67,5.3l-3.32,4.84-3.32-4.84Z"/></svg>