<?xml version="1.0" encoding="utf-8"?>
<!-- Generator: Adobe Illustrator 24.2.3, SVG Export Plug-In . SVG Version: 6.00 Build 0)  -->
<svg version="1.1" id="Layer_1" xmlns="http://www.w3.org/2000/svg" xmlns:xlink="http://www.w3.org/1999/xlink" x="0px" y="0px"
	 viewBox="0 0 106 103" style="enable-background:new 0 0 106 103;" xml:space="preserve">
<style type="text/css">
	.st0{fill:#EAEAEA;}
	.st1{fill:#9C006D;}
	.st2{fill:#999999;}
	.st3{fill:#FDFDFD;}
	.st4{fill:#CCCCCC;}
	.st5{fill:#91A7A7;}
</style>
<path class="st0" d="M13.8,28.3c-4.4,6.9-6.5,14.5-6.5,23.2c0,8.6,2.2,16.4,6.5,23.3c0.1,0.1,0.1,0.4,0.2,0.5c1.8,2.7,4,5.4,6.5,7.9
	c8.9,8.8,19.7,13.1,32.3,13.1s23.3-4.4,32.3-13.1c2.5-2.5,4.7-5.2,6.5-7.9c4.6-7,6.9-14.9,6.9-23.8c0-12.3-4.5-22.8-13.4-31.6
	c-8.9-8.6-19.7-13-32.3-13s-23.3,4.4-32.3,13C17.9,22.5,15.6,25.3,13.8,28.3z"/>
<path class="st1" d="M98.6,81.4v-4.6H65.5H42.3H8.2l0.2,4.7L98.6,81.4z M18.9,18.9v43.9h67.9V18.9H18.9z"/>
<path class="st2" d="M46.1,69.4h16.4l3.1,7.3h33.1l-11.7-14H18.9l-10.7,14h34.1L46.1,69.4z"/>
<path class="st3" d="M21.6,21.8v38.4h62.4V21.8H21.6z"/>
<path class="st4" d="M80.2,56.2v-4.5H25.5v4.5H80.2z"/>
<path class="st5" d="M79.9,30.2v-4.5l-54.6,0.1v4.5L79.9,30.2z"/>
<path class="st5" d="M68.5,47.5V43l-42.9,0.1v4.5L68.5,47.5z"/>
<path class="st4" d="M61,38.9v-4.5l-35.7,0.1V39L61,38.9z"/>
</svg>
