<?xml version="1.0" encoding="utf-8"?>
<!-- Generator: Adobe Illustrator 23.0.1, SVG Export Plug-In . SVG Version: 6.00 Build 0)  -->
<svg version="1.1" id="Layer_1" xmlns="http://www.w3.org/2000/svg" xmlns:xlink="http://www.w3.org/1999/xlink" x="0px" y="0px"
	 viewBox="0 0 214.48 460.2" style="enable-background:new 0 0 214.48 460.2;" xml:space="preserve">
<style type="text/css">
	.st0{fill:#707C7C;}
</style>
<path class="st0" d="M0,0v343h214.31V0H0z M184.83,238.77c0,40.06-34.41,72.58-76.81,72.58c-42.4,0-76.81-32.51-76.81-72.58
	c0-1.57,0.07-3.13,0.17-4.67h153.26C184.76,235.65,184.83,237.2,184.83,238.77z M61.42,203.25H30.91V30.83h30.51V203.25z
	 M122.77,202.76H92.25V30.83h30.51V202.76z M184.11,203.74H153.6V30.83h30.51V203.74z"/>
<g>
	<path class="st0" d="M73.82,398.96c0,1.18,0.13,2.36,0.13,3.67c0,6.54-1.96,10.34-3.14,12.82c-0.39,1.05-0.78,2.22-1.31,3.14
		c-0.65,1.05-1.57,1.96-2.22,3.01c-1.57,2.22-1.7,2.62-2.88,3.66c-1.44,1.31-4.06,3.01-4.19,3.01c-3.14,2.09-5.1,3.92-12.17,5.1
		c-0.65,0.13-1.44,0.13-2.09,0.26c-0.65,0.13-1.18,0.26-1.83,0.39c-0.13,0-3.79,0.26-5.89,0.26c-2.22,0-4.32-0.52-6.41-0.52
		c-0.39,0-3.66,0.13-3.93,0.26c-0.39,0-0.92,0.13-1.31,0.26c-0.39,0.13-1.05,0.26-1.44,0.39c-0.79,0.39-2.09,1.96-2.49,2.49
		c-0.13,0.39-0.26,0.92-0.26,1.05c-0.26,1.18-0.39,3.14-0.39,3.27c0,0.78,0.13,1.44,0.26,2.09c0,0.52,0,1.18,0.13,1.7
		c0.13,1.7,0.26,1.96,0.26,3.01c0,0.66-0.13,1.18,0,1.83c0,1.83,0.26,1.7,0.13,4.32c-0.13,1.31-0.26,2.49-1.44,3.27
		c-1.31,1.05-3.92,1.31-7.72,1.31c-2.36,0-4.97-0.26-7.33-0.26c-3.01,0.13-3.14,0.65-4.45-1.05c-1.05-1.44-1.31-2.09-1.31-3.79
		c0-1.04,0.13-1.96,0.13-3.01c0-1.96,0.13-3.79,0.13-5.76c0-1.18,0.13-2.49,0.13-3.79c0-2.22-0.39-4.45-0.39-6.67
		c0.13-1.57,0.26-3.27,0.13-4.71v-5.1c0-3.53,0.39-6.93,0.39-10.47c0-1.57-0.13-3.14,0-4.71c0.13-1.05,0.39-2.09,0.39-3.27
		c0-1.31-0.26-2.62-0.13-4.06c0-1.05,0.13-2.09,0-3.01c-0.13-1.44-0.39-2.88-0.39-4.19c0-1.44,0.13-2.88,0.13-4.19
		c0-1.7-0.13-3.27-0.13-4.97c0-1.31,0.13-2.75,0-4.19c-0.26-2.23-0.65-4.32-0.65-6.54c0-3.14,0.26-5.5,3.27-7.07
		c3.14-1.83,2.62-1.18,6.15-1.31c1.31-0.13,2.62-0.39,4.05-0.39c1.96,0,3.93,0.13,5.89,0c1.57,0,3.14-0.13,4.71-0.26
		c1.44,0,2.88,0,4.32-0.13c0.92,0,1.96-0.13,2.88-0.13c2.22,0,4.32,0.13,6.41,0.26c3.93,0,6.02-0.26,12.82,2.09
		c0.65,0.13,2.88,0.78,4.84,1.83c1.18,0.53,2.36,1.31,3.53,1.96c0.92,0.52,3.66,2.09,6.02,4.32c1.83,1.83,2.49,3.14,3.27,4.19
		c0.26,0.53,3.27,4.84,4.19,8.38c0.39,1.44,0.52,3.01,0.65,4.58c0.13,1.05,0.39,2.22,0.53,3.27V398.96z M22.79,400.14
		c-0.13,1.44-0.26,0.92-0.13,2.22c0.13,0.79,0.26,1.57,0.39,2.22c0,1.05,0,1.96,0.26,2.75c0.13,0.66,0.65,2.09,1.57,3.4
		c0.78,1.31,1.44,1.96,2.09,2.36c0.92,0.52,1.83,0.66,2.88,0.92c1.96,0.66,2.75,0.92,6.41,0.92c1.18,0,2.23-0.26,3.4-0.26
		c0.13,0,2.35-0.13,3.4-0.39c0.92-0.39,1.7-0.92,2.62-1.31c0,0,1.44-0.52,2.09-0.92c0.78-0.65,1.18-1.44,1.83-2.22
		c1.57-1.83,1.7-1.31,2.35-3.66c0.79-2.36,1.05-4.84,1.05-5.63c0-5.23,0.53-2.49-1.05-6.54c-0.39-1.05-0.79-2.22-1.44-3.27
		c-0.52-0.65-0.78-0.79-1.83-1.83c-1.44-1.18-1.96-1.7-2.75-2.09c-2.75-1.7-7.59-2.09-8.11-2.09c-1.57-0.13-3.14,0-4.84-0.13
		c-1.18-0.13-1.7-0.26-2.36-0.26c-0.39,0.13-0.92,0.26-1.83,0.52c-0.79,0.26-1.57,0.39-2.36,0.78c-2.35,1.31-3.4,5.23-3.4,5.37
		c-0.13,0.26-0.26,4.06-0.26,6.54V400.14z"/>
	<path class="st0" d="M94.63,366.52c3.53,0,4.19-0.65,5.76,1.05c1.83,1.83,1.18,2.75,1.05,4.06v1.44c0,1.05-0.13,2.09-0.13,3.14
		c-0.13,2.09,0.26,4.32,0.26,6.41c0,0.92-0.13,2.62-0.39,4.71c-0.13,0.92-0.26,1.96-0.26,2.88c0.13,0.79,0.26,1.57,0.26,2.36
		c0.13,0.92-0.26,3.67,1.44,3.67c1.31,0,2.88-1.18,3.93-1.7c0.92-0.52,1.44-0.52,3.14-0.92c0.92-0.26,1.83-0.52,2.75-0.65
		c0.92-0.13,1.7-0.13,2.62-0.26c0.92,0,1.96-0.13,2.88-0.13c1.05,0,5.1,0.39,6.02,0.65c0.39,0.13,4.58,1.96,7.07,3.66
		c1.05,0.79,1.7,1.96,2.49,3.01c1.83,2.36,1.96,1.57,3.01,4.32c0.26,0.79,0.66,1.44,0.92,2.22l0.79,2.36
		c1.44,4.71,0.52,8.64,0.52,13.35c0,2.09,0.13,4.19,0.26,6.15c0,1.96-0.13,4.06-0.13,6.02v4.71c-0.13,1.18-0.13,2.49-0.13,3.79
		c0,1.31,0.13,2.62,0,4.06c0,0.92-0.13,1.96-0.13,2.88c-0.13,4.19,0.65,5.36-1.05,7.2c-2.09,2.35-1.96,1.96-4.97,1.96
		c-1.18,0-2.09,0.13-3.27,0.13c-0.92,0-1.96-0.13-3.01,0c-1.31,0-2.75,0.13-4.06,0.13c-0.78,0-1.83,0.65-3.14-0.79
		c-1.57-1.7-1.05-4.06-1.05-6.28v-3.01c0.13-1.18,0.26-2.36,0.26-3.53c0-1.44-0.13-2.88,0-4.32c0.13-1.05,0.26-2.09,0.26-3.14
		c0-1.57-0.13-3.14-0.13-4.71c0-1.31,0.13-2.62,0.13-3.93l-0.39-3.93c-0.13-2.49-0.39-4.32-0.65-5.23c-0.39-1.05-0.26-0.52-0.79-1.7
		c-0.39-0.65-0.65-1.31-1.18-1.83c-0.65-0.52-2.36-1.7-4.71-1.7c-1.05,0-1.96,0.26-2.22,0.26c-2.09,0.52-2.75,0.92-3.93,2.62
		c-0.65,0.92-1.31,1.7-1.7,2.62c-0.92,1.83-1.96,6.28-1.96,11.65c0,2.09,0.26,4.32,0.26,6.41c-0.13,1.96-0.26,3.8-0.13,5.63
		c0,1.44,0.26,2.75,0.26,4.06c0,1.31-0.39,2.49-0.26,3.79c0.13,1.18,0.79,2.75-0.52,4.97c-0.79,1.31-1.83,2.09-4.71,1.96
		c-1.83-0.13-3.66-0.26-5.5-0.26c-1.7,0-3.27,0.13-4.84,0.13c-2.35,0.13-2.88,0-3.93-1.05c-1.83-1.96-1.18-2.75-1.18-5.1v-4.19
		c0.13-1.96,0.26-3.79,0.26-5.76c-0.13-5.23-0.26-10.34-0.26-15.57c0-3.53,0-7.2,0.13-10.73c0-1.31,0.13-2.49,0.13-3.79
		c0-1.83-0.13-3.53-0.13-5.37c0-1.18,0.13-2.49,0.13-3.79c-0.13-1.57-0.26-3.14-0.13-4.71c0-1.18,0.13-2.36,0.13-3.53
		c0-1.18-0.13-2.35,0-3.53c0-1.05,0.13-2.09,0.13-3.01c-0.13-1.44-0.26-2.88-0.26-4.45c0-1.83,0.13-3.67,0.13-5.63
		c-0.13-1.44-0.26-2.88-0.26-4.32c0-0.79,0.13-1.57,0.13-2.35c0-1.05-0.39-5.23,4.06-5.76c1.44-0.13,2.88,0.13,4.32,0.26H94.63z"/>
	<path class="st0" d="M179.42,392.29c1.18-0.13,2.49-0.26,3.79-0.26c2.36,0,7.59,1.18,9.68,2.09c1.18,0.52,2.35,1.18,3.53,1.83
		c1.83,0.92,3.01,1.05,5.76,3.53c3.01,2.62,3.27,3.4,4.84,5.23c0.92,1.18,2.09,2.22,2.88,3.53c0.65,1.05,1.44,2.75,2.36,5.36
		c0.52,1.44,2.22,5.76,2.22,10.47c0,1.7-0.26,3.4-0.39,4.97c0,0.13-0.13,3.4-0.52,4.97c-0.39,1.83-1.31,3.66-1.44,4.06
		c-0.52,1.05-0.79,2.22-1.31,3.4c-1.18,2.88-2.49,4.19-4.32,6.54c-3.4,4.58-2.62,3.79-6.02,6.02c-0.79,0.65-1.57,1.18-2.49,1.7
		c-1.05,0.52-1.31,0.52-2.88,1.18c-0.91,0.26-1.57,0.65-2.35,1.05c-0.52,0.26-3.01,1.18-5.24,1.57c-2.22,0.39-3.27,0.26-5.36,0.39
		c-1.31,0-2.62,0.26-3.92,0.26c-1.83,0-2.62-0.26-6.02-0.79c-4.19-0.65-4.97-0.78-7.2-1.83c-1.96-0.92-6.54-3.4-8.24-4.71
		c-1.44-1.18-1.83-1.83-2.35-2.62c-0.66-0.79-1.31-1.7-1.96-2.49c-0.52-0.52-1.05-1.05-1.44-1.57c-2.62-3.01-3.4-5.89-4.58-9.55
		c-0.65-2.09-1.18-3.53-1.44-5.76c-0.13-2.09,0-1.57,0.13-4.45c0-1.31-0.26-2.62-0.26-3.93c0-1.05,0.39-4.45,0.65-5.37
		c0.26-0.78,0.52-1.57,0.92-2.49c0.65-1.83,0.52-1.83,1.05-2.88c0.65-1.18,1.57-2.36,2.35-3.4c1.05-1.57,2.35-3.66,3.79-4.84
		c0.39-0.39,0.92-0.65,1.31-1.05c0.92-0.65,2.36-2.36,2.36-2.36c0.26-0.26,0.91-0.92,1.7-1.44c1.83-1.31,2.09-1.18,4.06-2.23
		c1.18-0.65,2.22-1.44,3.4-1.96c2.75-1.31,6.8-2.22,9.94-2.22H179.42z M170.78,415.19c-0.92,0.65-1.57,1.44-1.83,1.7
		c-0.92,1.18-3.66,4.06-3.66,8.64c0,4.06,0.65,5.89,1.44,7.72c0.39,0.92,0.79,1.83,1.31,2.75c1.18,1.57,4.06,3.66,5.89,4.32
		c0.79,0.26,1.05,0.39,2.62,0.65c0.92,0.13,1.83,0.26,2.75,0.26c1.05,0,1.57-0.13,2.49-0.39c2.88-0.65,4.06-1.57,6.15-3.27
		c0.26-0.13,1.7-1.18,2.49-2.22c0.79-1.05,0.52-1.05,1.44-2.88c0.26-0.65,0.65-1.31,0.78-1.96c0.39-0.92,0.78-4.32,0.78-5.23
		c0-1.44-0.92-4.84-1.57-6.15c-0.53-0.92-0.79-1.31-2.23-2.62c-2.22-2.09-1.57-1.7-3.53-2.62c-2.88-1.31-1.96-0.92-4.32-1.31
		c-0.92-0.13-1.7-0.26-2.49-0.39C177.06,412.18,172.48,414.01,170.78,415.19z"/>
</g>
</svg>
