<?xml version="1.0" encoding="utf-8"?>
<!-- Generator: Adobe Illustrator 26.3.1, SVG Export Plug-In . SVG Version: 6.00 Build 0)  -->
<svg version="1.1" id="Layer_1" xmlns="http://www.w3.org/2000/svg" xmlns:xlink="http://www.w3.org/1999/xlink" x="0px" y="0px"
	 viewBox="0 0 450 280" style="enable-background:new 0 0 450 280;" xml:space="preserve">
<style type="text/css">
	.st0{clip-path:url(#SVGID_00000048486028496895394130000002974990785306403499_);}
	.st1{fill:#00CCBE;}
	.st2{fill:#CCCCCC;}
	.st3{fill:#440063;}
	.st4{fill:#FFFFFF;}
	.st5{fill:#9C006D;}
	.st6{fill:#430160;}
	.st7{fill:#FB5058;}
	.st8{fill:none;stroke:#007E89;stroke-width:2.6487;stroke-miterlimit:3;}
	.st9{fill:#999999;}
	.st10{fill:#007E8A;}
	.st11{fill:#F2B718;}
	.st12{fill:#F4B817;}
	.st13{fill:#F64E56;}
	.st14{fill:#E18151;}
	.st15{fill:#FF9966;}
	.st16{fill:#9B006D;}
	.st17{fill:#FABE00;}
	.st18{fill:#FFCC33;}
	.st19{fill:none;stroke:#CCCCCC;stroke-width:7.6624;stroke-linejoin:round;stroke-miterlimit:4.6288;}
	.st20{fill:#007E89;}
	.st21{fill:#450064;}
	.st22{fill:#FA5058;}
	.st23{fill:#F54E56;}
	.st24{fill:none;stroke:#FF9966;stroke-width:0.7844;stroke-linecap:round;stroke-linejoin:round;stroke-miterlimit:10;}
	.st25{fill:none;stroke:#430062;stroke-width:0.7844;stroke-linecap:round;stroke-linejoin:round;stroke-miterlimit:10;}
	.st26{fill:#00C8BB;}
	.st27{fill:#450063;}
	.st28{fill:#FF5863;}
	.st29{fill:#8C9C9C;}
	.st30{fill:#FFAD93;}
	.st31{fill:#E39075;}
</style>
<g>
	<defs>
		<polygon id="SVGID_1_" points="-3,-3.1 452,-2.1 452,282.9 -2,282.9 		"/>
	</defs>
	<clipPath id="SVGID_00000163760565192360031340000002931699726082942895_">
		<use xlink:href="#SVGID_1_"  style="overflow:visible;"/>
	</clipPath>
	<g style="clip-path:url(#SVGID_00000163760565192360031340000002931699726082942895_);">
		<g transform="matrix( 1, 0, 0, 1, 0,0) ">
			<g>
				<g id="Layer0_4_FILL">
					<path class="st1" d="M481.1-10.4H-1.7v265.8h482.8V-10.4z"/>
				</g>
			</g>
		</g>
		<g transform="matrix( 1, 0, 0, 1, 0,0) ">
			<g>
				<g id="Layer0_2_MEMBER_2_MEMBER_1_MEMBER_0_FILL">
					<path class="st2" d="M136.7,268l-0.8-2.5h-15.8c0.1,0.8,0.3,1.6,0.8,2.5H136.7z"/>
					<path class="st3" d="M135.9,265.5l-4-13.7h-9c0.4,1.3,0.9,2.9,1.5,4.9c0.8,2.2,0.2,3.8-1.6,4.8c-2,0.8-2.9,2.2-2.7,4.1h15.8
						V265.5z"/>
				</g>
			</g>
		</g>
		<g transform="matrix( 1, 0, 0, 1, 0,0) ">
			<g>
				<g id="Layer0_2_MEMBER_4_MEMBER_1_MEMBER_0_FILL">
					<path class="st4" d="M110.1,265.5l-0.8,2.5h15.8c0.4-0.9,0.7-1.7,0.8-2.5H110.1z"/>
					<path class="st5" d="M121.6,256.6c0.6-1.9,1.1-3.6,1.4-4.9h-8.9l-4,13.7h15.8c0.2-1.9-0.7-3.3-2.7-4.1
						C121.4,260.4,120.8,258.8,121.6,256.6z"/>
				</g>
			</g>
		</g>
		<g transform="matrix( 1, 0, 0, 1, 0,0) ">
			<g>
				<g id="Layer0_2_MEMBER_4_MEMBER_1_MEMBER_1_FILL">
					<path class="st3" d="M115.1,258.5c-0.2,0-0.4,0.1-0.5,0.2s-0.2,0.3-0.2,0.5s0,0.3,0.2,0.5c0.1,0.1,0.3,0.2,0.5,0.2h6
						c0.2,0,0.3-0.1,0.5-0.2c0.1-0.1,0.2-0.3,0.2-0.5s-0.1-0.3-0.2-0.5c-0.1-0.1-0.3-0.2-0.5-0.2H115.1 M122.5,254
						c-0.1-0.1-0.3-0.2-0.5-0.2h-5.3c-0.2,0-0.3,0.1-0.5,0.2c-0.1,0.1-0.2,0.2-0.2,0.5c0,0.2,0.1,0.4,0.2,0.5s0.3,0.2,0.5,0.2h5.3
						c0.2,0,0.3-0.1,0.5-0.2c0.1-0.1,0.2-0.3,0.2-0.5C122.7,254.2,122.6,254.1,122.5,254 M122.1,256.8c0-0.2,0-0.3-0.2-0.5
						c-0.1-0.1-0.3-0.2-0.5-0.2h-5.5c-0.2,0-0.4,0-0.5,0.2c-0.1,0.1-0.2,0.3-0.2,0.5s0,0.4,0.2,0.5c0.1,0.1,0.3,0.2,0.5,0.2h5.5
						c0.2,0,0.4-0.1,0.5-0.2C122,257.2,122.1,257,122.1,256.8z"/>
				</g>
			</g>
		</g>
		<g transform="matrix( 1, 0, 0, 1, 0,0) ">
			<g>
				<g id="Layer0_5_FILL">
					<path class="st6" d="M476.4,256.5v-65.1H275.5v65.1H476.4z"/>
				</g>
			</g>
		</g>
		<g transform="matrix( 1, 0, 0, 1, 0,0) ">
			<g>
				<g id="Layer0_6_FILL">
					<path class="st7" d="M476.4,226.8v-73.3H-1v73.3H476.4L476.4,226.8z"/>
				</g>
			</g>
		</g>
		<g transform="matrix( 1, 0, 0, 1, 0,0) ">
			<g>
				<g id="Layer0_7_FILL">
					<path class="st1" d="M437,193.9c-4.2,5.2-3.7,9.9,1.4,14.2l15.4,12.6c5.2,4.2,9.9,3.8,14.2-1.4l12.6-15.4
						c4.3-5.2,3.8-9.9-1.4-14.2L463.8,177c-5.1-4.2-9.8-3.7-14.1,1.5L437,193.9z"/>
				</g>
			</g>
		</g>
		<g>
			<g transform="matrix( 1, 0, 0, 1, 0,0) ">
				<g>
					<g id="Layer0_16_MEMBER_0_FILL">
						<path class="st4" d="M354.9,46.5h-45v45h45V46.5z"/>
					</g>
				</g>
				<g>
					<path id="Layer0_16_MEMBER_0_1_STROKES" class="st8" d="M309.9,46.5h45v45h-45V46.5z"/>
				</g>
			</g>
			<g transform="matrix( 1, 0, 0, 1, 0,0) ">
				<g>
					<g id="Layer0_16_MEMBER_1_FILL">
						<path class="st9" d="M348.5,85V53h-32v32H348.5L348.5,85z"/>
					</g>
				</g>
			</g>
			<g transform="matrix( 1, 0, 0, 1, 0,0) ">
				<g>
					<g id="Layer0_16_MEMBER_2_FILL">
						<path class="st5" d="M349.8,51.7h-34.6v34.6h34.6V51.7z"/>
					</g>
				</g>
			</g>
			<g transform="matrix( 1, 0, 0, 1, 0,0) ">
				<g>
					<g id="Layer0_16_MEMBER_2_MEMBER_0_FILL">
						<path class="st5" d="M349.7,51.7h-34.6v34.6h34.6V51.7L349.7,51.7z"/>
					</g>
				</g>
			</g>
			<g transform="matrix( 1, 0, 0, 1, 0,0) ">
				<g>
					<g id="Layer0_16_MEMBER_2_MEMBER_1_FILL">
						<path class="st4" d="M329.3,53.2L329.3,53.2c-0.8,0-1.5,0.3-2.1,0.8c-0.6,0.6-0.9,1.3-0.9,2.1l1.1,18.9l2.7,0.1l2-18.8
							c0-0.8-0.2-1.5-0.8-2.1C330.8,53.5,330.1,53.3,329.3,53.2z"/>
					</g>
				</g>
			</g>
			<g transform="matrix( 1, 0, 0, 1, 0,0) ">
				<g>
					<g id="Layer0_16_MEMBER_2_MEMBER_2_FILL">
						<path class="st10" d="M332.5,69.2c-0.8-0.8-1.8-1.2-2.9-1.2s-2.1,0.4-2.9,1.2c-0.8,0.8-1.2,1.8-1.2,3c0,1.1,0.4,2.1,1.2,2.9
							c0.8,0.8,1.8,1.2,2.9,1.2c1.2,0,2.1-0.4,2.9-1.2s1.2-1.8,1.2-2.9C333.7,71,333.3,70,332.5,69.2z"/>
					</g>
				</g>
			</g>
			<g transform="matrix( 1, 0, 0, 1, 0,0) ">
				<g>
					<g id="Layer0_16_MEMBER_2_MEMBER_3_FILL">
						<path class="st10" d="M317,77.8c1.2,1.2,2.7,1.8,4.5,1.8s3.2-0.6,4.5-1.8c1.2-1.3,1.9-2.7,1.8-4.5c0-1.7-0.6-3.2-1.8-4.5
							c-1.2-1.2-2.7-1.8-4.5-1.8s-3.2,0.6-4.5,1.8c-1.2,1.2-1.8,2.7-1.8,4.5S315.8,76.6,317,77.8z"/>
					</g>
				</g>
			</g>
			<g transform="matrix( 1, 0, 0, 1, 0,0) ">
				<g>
					<g id="Layer0_16_MEMBER_2_MEMBER_4_MEMBER_0_FILL">
						<path class="st4" d="M341.7,69.2c-1.2-1.2-2.8-1.6-4.8-1.3c-2,0.3-3.8,1.3-5.4,2.9s-2.6,3.5-2.9,5.4c-0.3,2,0.1,3.6,1.3,4.8
							c1.2,1.2,2.8,1.6,4.8,1.3c2-0.3,3.8-1.3,5.4-2.9s2.6-3.4,2.9-5.5C343.4,72,342.9,70.4,341.7,69.2z"/>
					</g>
				</g>
			</g>
			<g transform="matrix( 1, 0, 0, 1, 0,0) ">
				<g>
					<g id="Layer0_16_MEMBER_2_MEMBER_4_MEMBER_1_FILL">
						<path class="st11" d="M334.9,80c1.1,0,2.1-0.4,2.9-1.2c0.8-0.8,1.2-1.7,1.2-2.9c0-1.1-0.4-2-1.2-2.8s-1.7-1.2-2.9-1.2
							c-1.1,0-2.1,0.4-2.9,1.2c-0.8,0.8-1.2,1.7-1.2,2.9c0,1.1,0.4,2.1,1.2,2.9C332.9,79.6,333.9,80,334.9,80z"/>
					</g>
				</g>
			</g>
			<g transform="matrix( 1, 0, 0, 1, 0,0) ">
				<g>
					<g id="Layer0_16_MEMBER_2_MEMBER_5_FILL">
						<path class="st3" d="M316.9,66.6c-0.6,0-1.2,0.1-1.7,0.2V79c0.6,0.1,1.1,0.2,1.7,0.2c1.7,0,3.2-0.6,4.5-1.9
							c1.3-1.2,1.9-2.7,1.9-4.5s-0.6-3.2-1.9-4.5C320.1,67.3,318.6,66.6,316.9,66.6z"/>
					</g>
				</g>
			</g>
			<g transform="matrix( 1, 0, 0, 1, 0,0) ">
				<g>
					<g id="Layer0_16_MEMBER_2_MEMBER_6_FILL">
						<path class="st12" d="M321.7,72.2c-1.8,0-3.3,0.6-4.6,2c-1.3,1.3-2,2.8-2,4.6c0,1.8,0.6,3.4,2,4.7c1.3,1.3,2.8,1.9,4.6,1.9
							s3.4-0.6,4.7-1.9c1.3-1.3,1.9-2.8,1.9-4.7c0-1.8-0.6-3.3-1.9-4.6C325.1,72.8,323.5,72.2,321.7,72.2 M317.9,74.9L317.9,74.9
							c1.1-1.1,2.4-1.6,3.9-1.6s2.8,0.6,3.9,1.6l0,0c1.1,1.1,1.6,2.4,1.6,3.8c0,1.5-0.5,2.8-1.6,3.9s-2.4,1.6-3.9,1.6
							s-2.8-0.5-3.9-1.6s-1.6-2.4-1.6-3.9C316.3,77.2,316.8,75.9,317.9,74.9 M318.4,75.4c-0.9,0.9-1.4,2-1.4,3.3s0.5,2.4,1.4,3.3
							l0,0c0.9,0.9,2,1.4,3.3,1.4s2.4-0.5,3.3-1.4l0,0c0.9-0.9,1.4-2,1.4-3.3s-0.4-2.4-1.4-3.3c-0.9-0.9-2-1.4-3.3-1.4
							C320.4,74.1,319.3,74.5,318.4,75.4 M319.2,76.2L319.2,76.2c0.7-0.7,1.5-1,2.6-1c1,0,1.9,0.3,2.6,1l0,0c0.7,0.7,1,1.6,1,2.6
							s-0.3,1.9-1,2.6s-1.6,1-2.6,1s-1.8-0.3-2.6-1c-0.7-0.7-1-1.6-1-2.6S318.5,76.9,319.2,76.2 M321.7,76c-0.8,0-1.4,0.3-2,0.8
							c-0.5,0.6-0.8,1.2-0.8,1.9c0,0.8,0.3,1.4,0.8,2l0,0c0.6,0.5,1.2,0.8,2,0.8s1.4-0.3,2-0.8l0,0c0.5-0.6,0.8-1.2,0.8-2
							c0-0.7-0.3-1.4-0.8-1.9C323.2,76.2,322.5,76,321.7,76 M320.5,77.5L320.5,77.5c0.3-0.3,0.8-0.5,1.2-0.5s0.8,0.2,1.2,0.5
							c0.3,0.3,0.5,0.7,0.5,1.2s-0.2,0.9-0.5,1.2c-0.3,0.3-0.8,0.5-1.2,0.5s-0.9-0.1-1.2-0.5l0,0c-0.3-0.3-0.5-0.8-0.5-1.2
							S320.2,77.9,320.5,77.5 M316.5,73.6L316.5,73.6c1.4-1.5,3.1-2.2,5.2-2.2c2,0,3.8,0.7,5.2,2.2c1.4,1.4,2.2,3.1,2.2,5.2
							s-0.7,3.8-2.2,5.2s-3.2,2.2-5.2,2.2s-3.8-0.7-5.2-2.2c-0.6-0.6-1.1-1.3-1.4-2v2c0.2,0.3,0.4,0.5,0.7,0.8
							c0.7,0.7,1.5,1.3,2.3,1.7h7.3c0.8-0.4,1.6-0.9,2.3-1.6l0,0c1.6-1.7,2.4-3.6,2.4-6c0-2.3-0.8-4.3-2.4-5.9s-3.6-2.5-6-2.5
							c-2.3,0-4.3,0.8-5.9,2.5c-0.2,0.2-0.5,0.5-0.7,0.7v2C315.5,74.8,315.9,74.1,316.5,73.6z"/>
					</g>
				</g>
			</g>
			<g transform="matrix( 1, 0, 0, 1, 0,0) ">
				<g>
					<g id="Layer0_16_MEMBER_2_MEMBER_7_FILL">
						<path class="st10" d="M316.5,81c1.3-1.2,1.9-2.7,1.9-4.5c0-1.7-0.6-3.2-1.9-4.5c-0.4-0.4-0.9-0.8-1.4-1.1V82
							C315.6,81.9,316.1,81.5,316.5,81z"/>
					</g>
				</g>
			</g>
			<g transform="matrix( 1, 0, 0, 1, 0,0) ">
				<g>
					<g id="Layer0_16_MEMBER_2_MEMBER_8_FILL">
						<path class="st4" d="M341.2,82.5l2.2-2.2h-28.2v2.2H341.2z"/>
						<path class="st13" d="M337.3,86.3l3.9-3.9h-26.1v3.9H337.3 M343.4,80.3l4-4.1h-32.3v4.1H343.4z"/>
					</g>
				</g>
			</g>
		</g>
		<g transform="matrix( 1, 0, 0, 1, 0,0) ">
			<g>
				<g id="Layer0_8_FILL">
					<path class="st1" d="M261.9,208.1l15.4,12.6c5.2,4.2,9.9,3.7,14.2-1.4l12.6-15.4c4.2-5.2,3.8-9.9-1.4-14.1l-15.4-12.6
						c-5.2-4.2-9.9-3.8-14.2,1.4L260.5,194C256.2,199.1,256.7,203.8,261.9,208.1z"/>
				</g>
			</g>
		</g>
		<g transform="matrix( 1, 0, 0, 1, 0,0) ">
			<g>
				<g id="Layer0_9_FILL">
					<path class="st5" d="M476.4,226.8v-15.6H275.5v15.6H476.4z"/>
				</g>
			</g>
		</g>
		<g transform="matrix( 1.04986572265625, 0, 0, 1.04986572265625, 219.6,285.3) ">
			<g transform="matrix( 1, 0, 0, 1, 0,0) ">
				<g>
					<g id="Symbol_1_0_Layer0_0_MEMBER_0_FILL">
						<path class="st14" d="M110-110.7c-0.5-0.5-1.1-0.8-1.8-0.9l-7-0.2c-0.5,0-1,0.1-1.4,0.3c-0.4,0.2-0.8,0.6-1,1L85.6-87.7
							c-0.4,0.6-0.4,1.3-0.2,2c0.2,0.7,0.6,1.3,1.2,1.6c0.6,0.4,1.3,0.4,2,0.3c0.7-0.2,1.3-0.6,1.6-1.3l12.4-21.3l5.4,0.2
							c0.7,0,1.4-0.2,1.9-0.7s0.8-1.1,0.9-1.8C110.8-109.5,110.6-110.1,110-110.7z"/>
					</g>
				</g>
			</g>
			<g transform="matrix( 1, 0, 0, 1, 0,0) ">
				<g>
					<g id="Symbol_1_0_Layer0_0_MEMBER_1_MEMBER_0_MEMBER_0_FILL">
						<path class="st2" d="M111.5-116.6h-11.4l1.6,14.4h8.2L111.5-116.6z"/>
					</g>
				</g>
			</g>
			<g transform="matrix( 1, 0, 0, 1, 0,0) ">
				<g>
					<g id="Symbol_1_0_Layer0_0_MEMBER_1_MEMBER_0_MEMBER_1_FILL">
						<path class="st4" d="M99.4-117.9l-0.3,2.5h13.6l-0.4-2.5H99.4z"/>
					</g>
				</g>
			</g>
			<g transform="matrix( 1, 0, 0, 1, 0,0) ">
				<g>
					<g id="Symbol_1_0_Layer0_0_MEMBER_2_FILL">
						<path class="st14" d="M106.4-108.6c-0.2-0.1-0.4-0.1-0.6,0l-8.4,2.8c-0.2,0.1-0.4,0.2-0.5,0.4s-0.1,0.4,0,0.7
							c0,0.2,0.2,0.4,0.4,0.5c0.2,0.1,0.4,0.1,0.6,0l2.3-0.8l-1.6,1c-0.2,0.1-0.3,0.3-0.4,0.5c0,0.2,0,0.4,0.1,0.6s0.3,0.3,0.5,0.4
							s0.4,0,0.6-0.1l6.9-4.6c0.2-0.1,0.3-0.3,0.4-0.5c0-0.2,0-0.4-0.1-0.6C106.8-108.3,106.6-108.5,106.4-108.6z"/>
					</g>
				</g>
			</g>
			<g transform="matrix( 1, 0, 0, 1, 0,0) ">
				<g>
					<g id="Symbol_1_0_Layer0_1_FILL">
						<path class="st15" d="M119.3-94.9l-5.3,2.4l8.9,19.6l5.3-2.4L119.3-94.9z"/>
					</g>
				</g>
			</g>
			<g transform="matrix( 1, 0, 0, 1, 0,0) ">
				<g>
					<g id="Symbol_1_0_Layer0_2_MEMBER_0_FILL">
						<path class="st4" d="M83-92.3c-0.5-4.5-1.7-8.2-3.5-11.4c-3.4-5.4-7.8-8.1-13-7.9v4.1l3,5.9l-1,1.2c-1.3,4.6-1,9.6,0.9,15.1
							C78.8-84.4,83.3-86.7,83-92.3 M76.3-113.4l-6.7,1.1c5.4-0.7,10,1.5,13.7,6.7l2-0.7C82.7-109.5,79.8-111.9,76.3-113.4z"/>
						<path class="st3" d="M69.5-112.3c-0.1,0-0.1,0-0.2,0l-2.8,0.5v0.1c5.2-0.1,9.6,2.5,13,7.9c1.8,3.2,3,7,3.5,11.4
							c0.3,5.6-4.2,7.9-13.6,6.9c1,3,2.5,6.7,4.5,11.4l6.4-6.3l-1.6,3.1L95-80.2l-6.8-17.2c2.1-3.4,2.3-6.3,0.7-8.5
							c-0.1-0.2-0.3-0.4-0.5-0.6s-0.4-0.4-0.5-0.6c-3.1-3.1-6.5-5.2-10.2-6.4l-1.3,0.1c3.5,1.5,6.5,3.9,8.9,7.1l-2,0.7
							C79.5-110.8,74.9-113,69.5-112.3z"/>
					</g>
				</g>
			</g>
			<g transform="matrix( 1, 0, 0, 1, 0,0) ">
				<g>
					<g id="Symbol_1_0_Layer0_2_MEMBER_1_MEMBER_0_FILL">
						<path class="st15" d="M70.8-125.3l0.5,3.5l-3.2,9.7l9.6-0.6l2-6.4L70.8-125.3z"/>
					</g>
				</g>
			</g>
			<g transform="matrix( 1, 0, 0, 1, 0,0) ">
				<g>
					<g id="Symbol_1_0_Layer0_2_MEMBER_1_MEMBER_1_FILL">
						<path class="st16" d="M66-138.9c-1.9,0-3.5,0.7-4.9,2c-1.3,1.3-2,3-1.9,4.9v9.8c0.1,2.4-1.2,4.2-4,5.4c3,3.7,6.5,4.2,10.5,1.5
							c1.6-2,2.3-4.2,2.1-6.6V-132c0-1.9,0.7-3.6,2-4.9c0.2-0.2,0.4-0.3,0.5-0.5C69.1-138.4,67.7-139,66-138.9z"/>
					</g>
				</g>
			</g>
			<g transform="matrix( 1, 0, 0, 1, 0,0) ">
				<g>
					<g id="Symbol_1_0_Layer0_2_MEMBER_1_MEMBER_2_FILL">
						<path class="st15" d="M77-130.3c-0.3-0.1-0.6-0.1-0.9,0c-0.2,0.1-0.4,0.3-0.5,0.6l-0.9,2.6c-0.1,0.3-0.1,0.5,0,0.9
							c0.1,0.3,0.3,0.5,0.6,0.5c0.3,0.1,0.6,0,0.8,0c0.1-0.1,0.3-0.2,0.4-0.3c0-0.1,0.1-0.2,0.2-0.3l0.9-2.6c0.1-0.3,0.1-0.5,0-0.8
							S77.3-130.2,77-130.3z"/>
					</g>
				</g>
			</g>
			<g transform="matrix( 1, 0, 0, 1, 0,0) ">
				<g>
					<g id="Symbol_1_0_Layer0_2_MEMBER_1_MEMBER_2_MEMBER_0_MEMBER_0_FILL">
						<path class="st16" d="M87.9-125.6c0.7-0.3,1.2-0.9,1.5-1.7c0.3-0.8,0.2-1.6-0.1-2.3c-0.4-0.8-1-1.3-1.8-1.5l-4.9-1.7
							c0,0-0.1,0-0.2,0c0,0,0,0-0.1,0l-1.8-0.6c-0.8-0.3-1.5-0.2-2.3,0.1c-0.7,0.4-1.2,1-1.5,1.7c-0.3,0.8-0.2,1.6,0.1,2.3
							c0.3,0.8,0.9,1.3,1.7,1.6l1.8,0.6h0.1h0.1l4.9,1.6C86.4-125.1,87.1-125.2,87.9-125.6z"/>
					</g>
				</g>
			</g>
			<g transform="matrix( 1, 0, 0, 1, 0,0) ">
				<g>
					<g id="Symbol_1_0_Layer0_2_MEMBER_1_MEMBER_2_MEMBER_1_MEMBER_0_FILL">
						<path class="st16" d="M70.1-121.4c0.5-0.4,1.5-0.9,3-1.5l4.3-1.6l1.1-1.2c2.7,1.2,5.2,1.1,7.7-0.4c2.3-1.5,3.2-2.2,2.7-2.3
							c0.4,0,0.7,0,0.8-0.2c0.1-0.2,0-0.9-0.5-1.9c-0.5-1.1-1.7-2-3.7-2.8l-6.6-2.3c-2.2-0.7-4.4-0.6-6.5,0.4
							c-0.6,0.2-1.1,0.5-1.5,0.9c-1.3,1-2.3,2.3-2.8,4l0,0c-0.3,1-0.5,2-0.5,3.1s0.3,2.3,0.9,3.4C68.8-122.9,69.4-122.1,70.1-121.4z
							"/>
					</g>
				</g>
			</g>
			<g transform="matrix( 1, 0, 0, 1, 0,0) ">
				<g>
					<g id="Symbol_1_0_Layer0_2_MEMBER_1_MEMBER_2_MEMBER_1_MEMBER_1_FILL">
						<path class="st15" d="M74.2-121.9c1.6,3.3,3.7,5.4,6.3,6.2c2.1,0.7,3.5,0,4.2-2.2l0.5-1.5h0.7c0.3,0,0.6-0.1,0.8-0.2
							c0.2-0.1,0.4-0.4,0.5-0.7c0.1-0.3,0.1-0.5,0-0.9l-0.7-2l0.5-1.7l-10.7-3.6L74.2-121.9z"/>
					</g>
				</g>
			</g>
			<g transform="matrix( 1, 0, 0, 1, 0,0) ">
				<g>
					<g id="Symbol_1_0_Layer0_2_MEMBER_1_MEMBER_2_MEMBER_2_FILL">
						<path class="st15" d="M87.5-126.8c0.4-1.3,0.3-2.3-0.3-3.1l-1.4,4.3l-8.2-2.8l-0.3,0.8l9.4,3.2L87.5-126.8z"/>
					</g>
				</g>
			</g>
			<g transform="matrix( 1, 0, 0, 1, 0,0) ">
				<g>
					<g id="Symbol_1_0_Layer0_2_MEMBER_1_MEMBER_2_MEMBER_3_FILL">
						<path class="st16" d="M77.1-130.3c-0.3-0.1-0.6-0.1-0.8,0c-0.2,0.1-0.4,0.4-0.5,0.6l-0.9,2.6c-0.1,0.3-0.1,0.6,0,0.9
							c0.1,0.2,0.3,0.4,0.6,0.5c0.3,0.1,0.6,0.1,0.8,0c0.3-0.1,0.5-0.3,0.5-0.6v-0.1c0.2-0.5,0.6-0.9,1.2-1.1c0.7-0.3,1.3-0.3,2-0.1
							l0,0l-2.5-0.8l0.2-0.5c0.1-0.3,0.1-0.6,0-0.9C77.6-130,77.3-130.2,77.1-130.3z"/>
					</g>
				</g>
			</g>
			<g transform="matrix( 1, 0, 0, 1, 0,0) ">
				<g>
					<g id="Symbol_1_0_Layer0_2_MEMBER_1_MEMBER_2_MEMBER_4_FILL">
						<path class="st15" d="M72.4-123.7l0.4,1c0.2,0.4,0.6,0.8,1.1,1s1,0.1,1.4,0c0.5-0.2,0.8-0.6,1-1.1c0.2-0.5,0.2-1,0-1.5l-0.4-1
							c-0.2-0.5-0.6-0.8-1.1-1s-1-0.1-1.5,0.1s-0.8,0.5-1,1C72.2-124.7,72.2-124.2,72.4-123.7z"/>
					</g>
				</g>
			</g>
			<g transform="matrix( 1, 0, 0, 1, 0,0) ">
				<g>
					<g id="Symbol_1_0_Layer0_2_MEMBER_1_MEMBER_2_MEMBER_5_FILL">
						<path class="st4" d="M71.2-123.4L71.2-123.4c-0.9,0.4-1.5,1.1-1.8,2c0,0,0,0,0,0.1c-0.3,0.9-0.2,1.8,0.2,2.7l0,0
							c0.4,0.9,1.1,1.5,2,1.8l0,0c0.9,0.3,1.8,0.2,2.7-0.2l0,0c0.9-0.4,1.6-1.1,1.8-2.1c0.3-0.9,0.3-1.8-0.2-2.7l0,0
							c-0.4-0.9-1.1-1.5-2-1.8l0,0C73-123.9,72.1-123.8,71.2-123.4 M73.4-121.9L73.4-121.9c0.5,0.1,0.8,0.4,1,0.9
							c0.2,0.4,0.3,0.9,0.1,1.4l0,0c-0.1,0.5-0.4,0.8-0.9,1c-0.4,0.2-0.9,0.2-1.4,0.1l0,0c-0.5-0.2-0.8-0.5-1-0.9l0,0
							c-0.2-0.4-0.3-0.9-0.1-1.3l0,0c0.2-0.5,0.5-0.9,1-1.1C72.4-122,72.9-122,73.4-121.9z"/>
					</g>
				</g>
			</g>
			<g transform="matrix( 1, 0, 0, 1, 0,0) ">
				<g>
					<g id="Symbol_1_0_Layer0_2_MEMBER_2_FILL">
						<path class="st17" d="M83.7-102.3c0.4-0.4,0.5-0.8,0.5-1.4c0-0.5-0.2-0.9-0.5-1.3c-0.4-0.3-0.8-0.5-1.4-0.5
							c-0.5,0-0.9,0.2-1.4,0.5c-0.3,0.4-0.5,0.8-0.5,1.3s0.2,1,0.5,1.4c0.4,0.4,0.8,0.6,1.4,0.6C82.9-101.7,83.3-101.9,83.7-102.3z"
							/>
					</g>
				</g>
			</g>
			<g transform="matrix( 1, 0, 0, 1, 0,0) ">
				<g>
					<g id="Symbol_1_0_Layer0_2_MEMBER_3_FILL">
						<path class="st17" d="M89.5-105.7c0-0.4-0.2-0.7-0.6-1.1c-0.3-0.4-0.6-0.6-1-0.8c-0.3-0.1-0.6-0.1-0.8,0
							c-0.2,0.1-0.2,0.4-0.2,0.8c0.1,0.4,0.3,0.8,0.6,1.1c0.3,0.4,0.7,0.6,1,0.8c0.4,0.1,0.6,0.1,0.9,0
							C89.6-105,89.6-105.3,89.5-105.7z"/>
					</g>
				</g>
			</g>
			<g transform="matrix( 1, 0, 0, 1, 0,0) ">
				<g>
					<g id="Symbol_1_0_Layer0_2_MEMBER_4_FILL">
						<path class="st18" d="M73.4-136.3c0-0.5-0.1-0.9-0.4-1.3c-0.3-0.3-0.7-0.5-1.2-0.6c-0.5,0-0.9,0.1-1.3,0.4l-3,2.7
							c-0.3,0.3-0.5,0.7-0.6,1.2s0.1,0.9,0.4,1.3l0,0c0.3,0.4,0.7,0.6,1.2,0.6s0.9-0.1,1.3-0.4l3-2.6
							C73.2-135.4,73.4-135.9,73.4-136.3z"/>
					</g>
				</g>
			</g>
			<g transform="matrix( 1, 0, 0, 1, 0,0) ">
				<g>
					<path id="Symbol_1_0_Layer0_3_1_STROKES" class="st19" d="M67.9-105.8l5.4,21.1"/>
				</g>
			</g>
			<g transform="matrix( 1, 0, 0, 1, 0,0) ">
				<g>
					<g id="Symbol_1_0_Layer0_4_FILL">
						<path class="st3" d="M117.5-99.8c-1.6-0.3-3,0-4.3,0.9L89-81.7c-1.3,0.9-2,2.1-2.3,3.7s0,3,0.9,4.2c0.9,1.3,2.1,2.1,3.7,2.4
							s3,0,4.3-1l18.5-13.1l2,4.4l10.4-4.6l-4.6-10.5c-0.2-0.4-0.4-0.8-0.7-1.3C120.2-98.7,119-99.5,117.5-99.8z"/>
					</g>
				</g>
			</g>
			<g transform="matrix( 0.6951141357421875, -0.2123260498046875, 0.2123260498046875, 0.6951141357421875, 215.25,49.6) ">
				<g transform="matrix( 1, 0, 0, 1, 0,0) ">
					<g>
						<g id="Symbol_2_0_Layer0_0_FILL">
							<path class="st15" d="M-103-236.4L-103-236.4c-0.1,0.1-0.1,0.1-0.2,0.1l-5.5,1.9l-14.5-1c-0.2,0-0.4,0-0.6,0.1
								s-0.3,0.2-0.4,0.4s-0.1,0.4-0.2,0.6v4.3c0,0.2,0,0.4,0.1,0.6c0.1,0.2,0.3,0.3,0.4,0.4c0.2,0.1,0.4,0.1,0.6,0.1l9.1-0.4
								l11.2,4.9c0.2,0.1,0.5,0.1,0.8,0s0.5-0.2,0.6-0.5c0.1-0.2,0.2-0.5,0.1-0.8c0-0.3-0.1-0.5-0.4-0.7l-4.2-3.4l3.9-0.2l3,2.1
								l0.4,2.6c0,0.3,0.2,0.5,0.4,0.7s0.5,0.3,0.8,0.2c0.3,0,0.5-0.1,0.7-0.3s0.3-0.4,0.4-0.7l0.3-3.6c0-0.3-0.1-0.6-0.3-0.9l0,0
								l3.3,1.3c0.3,0.1,0.5,0.1,0.8,0s0.5-0.3,0.6-0.6s0.1-0.5,0-0.8s-0.3-0.5-0.5-0.7l-4.3-2.4h4.5c0.3,0,0.5-0.1,0.8-0.3
								c0.2-0.2,0.3-0.4,0.4-0.8c0-0.3,0-0.6-0.3-0.8c-0.2-0.2-0.4-0.4-0.8-0.4l-10.6-1.3C-102.6-236.5-102.8-236.5-103-236.4z"/>
						</g>
					</g>
				</g>
			</g>
			<g transform="matrix( 1, 0, 0, 1, 0,0.3) ">
				<g>
					<g id="Symbol_1_0_Layer0_6_FILL">
						<path class="st2" d="M118-82.3v-3.2H87.3v3.2H118z"/>
					</g>
				</g>
			</g>
			<g transform="matrix( 1, 0, 0, 1, 0,0) ">
				<g>
					<g id="Symbol_1_0_Layer0_7_FILL">
						<path class="st15" d="M110.1-64.1h-6.3l-6,15.6l0,0l4.9,1.9l0.5,0.2L110.1-64.1z"/>
						<path class="st4" d="M103.3-46.4l-0.5-0.2l-4.9-1.9l0,0L93.8-38l5.4,2.1L103.3-46.4z"/>
					</g>
				</g>
			</g>
			<g transform="matrix( 1, 0, 0, 1, 0,0) ">
				<g>
					<g id="Symbol_1_0_Layer0_8_FILL">
						<path class="st4" d="M136.6-81.6L136.6-81.6l-16.7,2.9l0,0c-0.8,0.1-1.6,0.5-2.2,1.2c-0.8,0.8-1.2,1.7-1.2,2.9
							c0,1.1,0.4,2.1,1.2,2.9c0.8,0.8,1.7,1.2,2.9,1.2c0.1,0,0.3,0,0.4,0h16.4l0,0c1.5,0,2.8-0.5,3.8-1.6c1.1-1.1,1.6-2.4,1.6-3.9
							s-0.5-2.8-1.6-3.9s-2.4-1.6-3.9-1.6C137.1-81.6,136.9-81.6,136.6-81.6z"/>
					</g>
				</g>
			</g>
			<g transform="matrix( 1, 0, 0, 1, 0,0) ">
				<g>
					<g id="Symbol_1_0_Layer0_9_FILL">
						<path class="st3" d="M117.5-76.2c0-1.6-0.6-3-1.7-4.1s-2.5-1.7-4.1-1.7H79.4c-1.6,0-3,0.6-4.1,1.7c-1.1,1.2-1.7,2.5-1.7,4.1
							s0.6,3,1.7,4.1c1.2,1.2,2.5,1.7,4.1,1.7h23.9l-5.7,15.7l11,4l8.4-23.1C117.3-74.5,117.5-75.3,117.5-76.2z"/>
					</g>
				</g>
			</g>
			<g transform="matrix( 1, 0, 0, 1, 0,0) ">
				<g>
					<g id="Symbol_1_0_Layer0_10_FILL">
						<path class="st2" d="M132.2-107.2h-8.7l-14.3,22h8.7L132.2-107.2z"/>
					</g>
				</g>
			</g>
			<g transform="matrix( 1, 0, 0, 1, 0,0) ">
				<g>
					<g id="Symbol_1_0_Layer0_11_FILL">
						<path class="st4" d="M120.6-93.4c0.6-0.4,1.2-1.1,1.7-1.9s0.8-1.6,1-2.3c0.1-0.7,0-1.2-0.3-1.5s-0.9-0.1-1.5,0.3
							s-1.2,1.1-1.7,1.9s-0.8,1.6-1,2.3c-0.1,0.7,0,1.2,0.4,1.5C119.4-92.8,119.9-92.9,120.6-93.4z"/>
					</g>
				</g>
			</g>
			<g transform="matrix( 1, 0, 0, 1, 0,0) ">
				<g>
					<g id="Symbol_1_0_Layer0_12_MEMBER_0_FILL">
						<path class="st4" d="M111.4-40.6c0.1,0,0.2-0.1,0.2-0.2c0-0.1,0.1-0.2,0-0.3c0-0.1-0.1-0.2-0.2-0.2s-0.2,0-0.3,0l-5.9,1.5
							c-0.1,0-0.2,0-0.2,0.1s0,0.2,0,0.3s0.1,0.2,0.2,0.2s0.2,0,0.3,0L111.4-40.6 M107-45.2c-0.5,0.2-0.9,0.9-1.3,1.8
							c-0.3,0.9-0.5,1.9-0.6,2.9l0,0c0,0.2,0,0.3,0.2,0.4c0,0,0.1,0,0.2,0c0,0,0,0,0.1,0c0,0,0.1,0,0.2-0.1c0.1,0,0.4-0.1,0.7-0.3
							c0.7-0.3,1.3-0.7,1.8-1.1c0.9-0.6,1.3-1.2,1.4-1.7c0.1-0.6-0.1-1.2-0.9-1.7C108.2-45.5,107.5-45.6,107-45.2 M106.5-43.1
							c0.2-0.7,0.5-1.2,0.9-1.4c0.3-0.1,0.6,0,1.1,0.2c0.4,0.3,0.6,0.6,0.5,0.9c-0.1,0.4-0.5,0.8-1.1,1.3c-0.4,0.3-1,0.7-1.6,1
							c-0.1,0-0.1,0-0.2,0.1C106.1-41.8,106.2-42.5,106.5-43.1z"/>
					</g>
				</g>
			</g>
			<g transform="matrix( 1, 0, 0, 1, 0,0) ">
				<g>
					<g id="Symbol_1_0_Layer0_12_MEMBER_1_FILL">
						<path class="st9" d="M112.4-37.7v5.2h6.8c0.1-1.6-0.7-2.7-2.5-3.5l0,0L112.4-37.7 M92.3-37.9c-0.4,1.4-0.5,3.2-0.1,5.4h5.5
							C96.7-35.7,94.9-37.5,92.3-37.9z"/>
						<path class="st20" d="M112.4-32.5v-5.2c-3.7-1.4-7.2-2.7-10.3-4.2c-1.9,3.4-4.8,4.1-8.5,1.9c-0.6,0.5-1,1.1-1.4,2.1
							c2.7,0.4,4.5,2.3,5.4,5.4H112.4L112.4-32.5z"/>
						<path class="st4" d="M92.1-32.5v1.9h27.2v-1.9h-6.8H97.7H92.1z"/>
					</g>
				</g>
			</g>
			<g transform="matrix( 1, 0, 0, 1, 0,0) ">
				<g>
					<g id="Symbol_1_0_Layer0_12_MEMBER_2_FILL">
						<path class="st4" d="M109.6-39.5c0-0.1-0.1-0.1-0.2-0.2c-0.1,0-0.2,0-0.3,0c-0.1,0-0.2,0.1-0.2,0.2l-0.7,1.7
							c0,0.1,0,0.2,0,0.3s0.1,0.1,0.2,0.2c0.1,0,0.2,0,0.3,0c0.1,0,0.2-0.1,0.2-0.2l0.7-1.7C109.7-39.3,109.7-39.4,109.6-39.5
							 M111-38.7c0-0.1,0-0.2,0-0.3s-0.1-0.2-0.2-0.2s-0.2,0-0.3,0c-0.1,0-0.2,0.1-0.2,0.2l-0.7,1.7c0,0.1,0,0.2,0,0.3
							s0.1,0.1,0.2,0.2c0.1,0,0.2,0,0.3,0c0.1,0,0.1-0.1,0.2-0.2L111-38.7 M108.3-40c0-0.1-0.1-0.2-0.2-0.2s-0.2,0-0.3,0
							c-0.1,0-0.1,0.1-0.2,0.2l-0.7,1.7c0,0.1,0,0.2,0,0.3s0.1,0.1,0.2,0.2c0.1,0,0.2,0,0.3,0c0.1,0,0.2-0.1,0.2-0.2l0.7-1.7
							C108.4-39.8,108.4-39.9,108.3-40 M107-40.2c0-0.1,0-0.2,0-0.3s-0.1-0.1-0.2-0.2c-0.1,0-0.2,0-0.3,0c-0.1,0-0.2,0.1-0.2,0.2
							l-0.7,1.7c0,0.1,0,0.2,0,0.3s0.1,0.1,0.2,0.2c0.1,0,0.2,0,0.3,0c0.1,0,0.2-0.1,0.2-0.2L107-40.2 M104.4-41.2
							c0-0.1,0-0.2,0-0.3s-0.1-0.2-0.2-0.2s-0.2,0-0.3,0c-0.1,0-0.2,0.1-0.2,0.2l-0.7,1.7c0,0.1,0,0.2,0,0.3s0.1,0.1,0.2,0.2
							c0.1,0,0.2,0,0.3,0c0.1,0,0.2-0.1,0.2-0.2L104.4-41.2 M105.5-41.2c-0.1,0-0.2,0-0.3,0c-0.1,0-0.1,0.1-0.2,0.2l-0.7,1.7
							c0,0.1,0,0.2,0,0.3s0.1,0.2,0.2,0.2s0.2,0,0.3,0c0.1,0,0.2-0.1,0.2-0.2l0.7-1.7c0-0.1,0-0.2,0-0.3
							C105.7-41.1,105.6-41.2,105.5-41.2z"/>
					</g>
				</g>
			</g>
			<g transform="matrix( 1, 0, 0, 1, 0,0) ">
				<g>
					<g id="Symbol_1_0_Layer0_13_FILL">
						<path class="st15" d="M71.9-100.9H64l1.5,18.3c0,0.6,0.2,1.2,0.6,1.7s0.8,0.9,1.4,1.1s1.2,0.2,1.8,0.1l23.5-6.8l0.7-4.9
							l-21.9,4.9L71.9-100.9z"/>
					</g>
				</g>
			</g>
			<g transform="matrix( 1, 0, 0, 1, 0,0) ">
				<g>
					<g id="Symbol_1_0_Layer0_14_FILL">
						<path class="st4" d="M72.8-102.8L72.8-102.8v-4.4c0-1.4-0.5-2.5-1.4-3.4S69.3-112,68-112c-1.4,0-2.5,0.5-3.4,1.4
							c-0.9,1-1.4,2.1-1.4,3.4L63-91.1l9.7,0.1L72.8-102.8z"/>
					</g>
				</g>
			</g>
		</g>
		<g>
			<g transform="matrix( 1, 0, 0, 1, 0,0) ">
				<g>
					<g id="Layer0_11_MEMBER_0_FILL">
						<path class="st4" d="M153.5,25.8H86.8v66.7h66.7V25.8z"/>
					</g>
				</g>
				<g>
					<path id="Layer0_11_MEMBER_0_1_STROKES" class="st8" d="M86.8,25.8h66.7v66.7H86.8V25.8z"/>
				</g>
			</g>
			<g transform="matrix( 1, 0, 0, 1, 0,0) ">
				<g>
					<g id="Layer0_11_MEMBER_1_FILL">
						<path class="st9" d="M143.9,82.9V35.4H96.4v47.5H143.9L143.9,82.9z"/>
					</g>
				</g>
			</g>
			<g transform="matrix( 1, 0, 0, 1, 0,0) ">
				<g>
					<g id="Layer0_11_MEMBER_2_MEMBER_0_FILL">
						<path class="st21" d="M146.4,32.9H93.9v52.5h52.5V32.9z"/>
					</g>
				</g>
			</g>
			<g transform="matrix( 1, 0, 0, 1, 0,0) ">
				<g>
					<g id="Layer0_11_MEMBER_2_MEMBER_1_MEMBER_0_FILL">
						<path class="st22" d="M128.4,53.9c0-4.2-1.5-7.7-4.4-10.7c-3-3-6.5-4.4-10.7-4.4s-7.8,1.5-10.8,4.4c-2.9,2.9-4.4,6.5-4.4,10.7
							s1.5,7.8,4.4,10.7c3,2.9,6.6,4.4,10.8,4.4c4.1,0,7.7-1.5,10.7-4.4C126.9,61.7,128.4,58.1,128.4,53.9z"/>
					</g>
				</g>
			</g>
			<g transform="matrix( 1, 0, 0, 1, 0,0) ">
				<g>
					<g id="Layer0_11_MEMBER_2_MEMBER_1_MEMBER_1_FILL">
						<path class="st4" d="M146.4,68.9V53.8l-36.6-0.1c5.3,4.3,7.2,9.3,5.7,15.2H146.4z"/>
					</g>
				</g>
			</g>
			<g transform="matrix( 1, 0, 0, 1, 0,0) ">
				<g>
					<g id="Layer0_11_MEMBER_2_MEMBER_1_MEMBER_2_FILL">
						<path class="st10" d="M101.5,32.9h-4.4l36.1,36h4.3L101.5,32.9z"/>
					</g>
				</g>
			</g>
			<g transform="matrix( 1, 0, 0, 1, 0,0) ">
				<g>
					<g id="Layer0_11_MEMBER_2_MEMBER_1_MEMBER_3_MEMBER_0_FILL">
						<path class="st10" d="M118.1,56.5c-2.6-2.6-5.7-3.9-9.4-3.9c-3.6,0-6.7,1.3-9.3,3.8l0.9,0.9c2.3-2.3,5.1-3.5,8.4-3.4
							c3.3,0,6.2,1.2,8.5,3.5c2.4,2.3,3.5,5.2,3.5,8.5l0,0c0,0.6,0,1.3-0.1,2l1.2,0.2c0.1-0.7,0.2-1.5,0.1-2.2
							C122.1,62.2,120.7,59.1,118.1,56.5z"/>
					</g>
				</g>
			</g>
			<g transform="matrix( 1, 0, 0, 1, 0,0) ">
				<g>
					<g id="Layer0_11_MEMBER_2_MEMBER_1_MEMBER_3_MEMBER_1_FILL">
						<path class="st23" d="M116.4,68c0,1.6,0.6,3.1,1.8,4.2c1.2,1.2,2.6,1.8,4.2,1.8s3.1-0.6,4.3-1.8c1.2-1.2,1.7-2.6,1.7-4.2
							s-0.6-3.1-1.7-4.2c-1.2-1.2-2.6-1.8-4.3-1.8s-3.1,0.6-4.2,1.8C117,64.9,116.4,66.3,116.4,68z"/>
					</g>
				</g>
			</g>
			<g transform="matrix( 1, 0, 0, 1, 0,0) ">
				<g>
					<g id="Layer0_11_MEMBER_2_MEMBER_1_MEMBER_4_FILL">
						<path class="st12" d="M115.5,68.9c-0.4,1.6-1.1,3.2-2,4.8c-2.2,4.1-3.8,8-4.8,11.7h37.7V68.9H115.5L115.5,68.9z"/>
					</g>
				</g>
			</g>
			<g transform="matrix( 1, 0, 0, 1, 0,0) ">
				<g>
					<g id="Layer0_11_MEMBER_2_MEMBER_1_MEMBER_5_FILL">
						<path class="st1" d="M132.5,68.9h-4.4l16.6,16.5h1.6v-2.7L132.5,68.9z"/>
					</g>
				</g>
			</g>
		</g>
		<g transform="matrix( 1, 0, 0, 1, 0,0) ">
			<g>
				<g id="Layer0_12_MEMBER_0_MEMBER_0_FILL">
					<path class="st20" d="M380.5-37.2H379v147h1.5V-37.2z"/>
				</g>
			</g>
		</g>
		<g transform="matrix( 1, 0, 0, 1, 0,0) ">
			<g>
				<g id="Layer0_12_MEMBER_0_MEMBER_1_FILL">
					<path class="st5" d="M400,126.4c0-0.1,0-0.2,0-0.3c0-5.5-1.9-10.1-5.8-14s-8.5-5.8-14-5.8s-10.1,1.9-14,5.8s-5.8,8.5-5.8,14
						c0,0.1,0,0.2,0,0.3H400z"/>
				</g>
			</g>
		</g>
		<g transform="matrix( 1, 0, 0, 1, 0,0) ">
			<g>
				<g id="Layer0_18_MEMBER_0_MEMBER_0_FILL">
					<path class="st2" d="M388.6,172.8h-12.2l1.7,15.4h8.7L388.6,172.8z"/>
				</g>
			</g>
		</g>
		<g transform="matrix( 1, 0, 0, 1, 0,0) ">
			<g>
				<g id="Layer0_18_MEMBER_0_MEMBER_1_FILL">
					<path class="st4" d="M389.5,171.5h-13.9l-0.4,2.7h14.7L389.5,171.5z"/>
				</g>
			</g>
		</g>
		<g transform="matrix( 1, 0, 0, 1, 0,0) ">
			<g>
				<g id="Layer0_19_MEMBER_0_FILL">
					<path class="st2" d="M380.1,189.5h-5.8v61.4h5.8V189.5z"/>
				</g>
			</g>
		</g>
		<g transform="matrix( 1, 0, 0, 1, 0,0) ">
			<g>
				<g id="Layer0_19_MEMBER_1_MEMBER_0_FILL">
					<path class="st4" d="M410,190.9V188h-65.6v2.9H410z"/>
				</g>
			</g>
		</g>
		<g transform="matrix( 1, 0, 0, 1, 0,0) ">
			<g>
				<g id="Layer0_19_MEMBER_2_FILL">
					<path class="st4" d="M393.6,253.6v-2.9h-32.8v2.9H393.6z"/>
				</g>
			</g>
		</g>
		<g transform="matrix( 1, 0, 0, 1, 0,0) ">
			<g>
				<g id="Layer0_20_MEMBER_0_FILL">
					<path class="st2" d="M445.8,207.3l-1.4,0.4l15.2,47.4l1.4-0.4L445.8,207.3 M430.6,207.3l-1.4,0.4l15.2,47.4l1.4-0.4
						L430.6,207.3z"/>
				</g>
			</g>
		</g>
		<g transform="matrix( 1, 0, 0, 1, 0,0) ">
			<g>
				<g id="Layer0_20_MEMBER_1_FILL">
					<path class="st2" d="M425.8,207.7l-1.4-0.4l-15.3,47.4l1.4,0.4L425.8,207.7 M410.6,207.7l-1.4-0.4L394,254.7l1.4,0.4
						L410.6,207.7z"/>
				</g>
			</g>
		</g>
		<g transform="matrix( 1, 0, 0, 1, 0,0) ">
			<g>
				<g id="Layer0_20_MEMBER_2_FILL">
					<path class="st4" d="M456,167.7L456,167.7c-4.4,0-8.4,1.2-12.2,3.6c-3.8,2.4-6.3,5.2-7.3,8.6l-6.6,21.3
						c-1.3,3.3-4.3,4.9-9.1,4.9h-16.5c-0.8,0-1.5,0.2-2,0.7c-0.6,0.4-0.9,1-0.9,1.6l0,0c0,0.6,0.3,1.2,0.9,1.6
						c0.5,0.4,1.2,0.7,2,0.7h45.5c5.8-0.4,9.4-2.5,10.6-6.5l7.6-24.4c1.1-3.3,0.4-6.3-1.9-8.6C463.7,168.9,460.3,167.7,456,167.7z"
						/>
				</g>
			</g>
		</g>
		<g transform="matrix( -0.5621795654296875, 0, 0, 0.5621795654296875, 758.05,217.05) ">
			<g transform="matrix( 1, 0, 0, 1, 0,0) ">
				<g>
					<g id="Symbol_3_0_Layer0_0_MEMBER_0_FILL">
						<path class="st15" d="M636.1-100.4c-0.5-0.2-1-0.3-1.5-0.3l-5.1,0.7c-0.5,0-1,0.3-1.4,0.6c-0.4,0.3-0.6,0.8-0.7,1.3l-1.4,6.5
							l-29.1,21.3c-1.1,0.8-1.7,1.8-1.9,3.2c-0.2,1.3,0.1,2.5,0.9,3.6c0.8,1.1,1.8,1.7,3.2,1.9c1.3,0.2,2.5-0.1,3.6-0.9l29.5-21.6
							c0.7-0.5,1.2-1.1,1.5-1.7c0,0.1,0.1,0.1,0.1,0.2l2.2,2.5c0.5,0.5,1,0.8,1.7,0.8s1.3-0.2,1.7-0.7c0.5-0.4,0.8-1,0.8-1.6l0,0
							c0.2,0,0.4,0.1,0.6,0.1c0.7,0,1.3-0.2,1.7-0.7c0.5-0.4,0.8-1,0.8-1.6c0-0.1,0-0.2,0-0.3c0.2,0,0.4,0.1,0.6,0.1
							c0.7,0,1.3-0.2,1.7-0.7c0.5-0.4,0.8-1,0.8-1.6c0-0.1,0-0.2,0-0.4c0.1,0,0.3,0,0.4,0c0.7,0,1.3-0.2,1.7-0.7
							c0.5-0.4,0.8-1,0.8-1.6c0-0.7-0.2-1.3-0.7-1.7l-2.2-2.4c-0.3-0.3-0.7-0.5-1.1-0.7c-0.4-0.1-0.9-0.1-1.3,0l-5.2,1.4l-1.7-3.6
							C636.9-99.7,636.5-100.1,636.1-100.4 M635.6-89.7c0,0-0.1,0-0.2,0l0.8-0.2c0,0.1,0,0.2,0,0.3l0,0
							C636.1-89.7,635.9-89.7,635.6-89.7 M633.9-89.1L633.9-89.1l0.5-0.2C634.2-89.4,634.1-89.2,633.9-89.1z"/>
					</g>
				</g>
			</g>
			<g transform="matrix( 1, 0, 0, 1, 0,0) ">
				<g>
					<g id="Symbol_3_0_Layer0_0_MEMBER_1_FILL">
						<path class="st15" d="M602.1-115.1c1.4-2.6,0.7-4.5-1.8-5.9l-5.5-2.9c-2.6-1.4-4.6-0.7-5.9,1.8L577-99.5
							c-1.4,2.6-0.7,4.5,1.8,5.9l5.4,2.9c2.6,1.4,4.6,0.7,5.9-1.8L602.1-115.1z"/>
					</g>
				</g>
			</g>
			<g transform="matrix( 1, 0, 0, 1, 0,0) ">
				<g>
					<g id="Symbol_3_0_Layer0_0_MEMBER_1_MEMBER_0_MEMBER_0_FILL">
						<path class="st3" d="M620.9-125.4c1.2-2.5,1.3-5.1,0.3-7.7c-0.8-2-2-3.6-3.7-4.8l-17-7.8c-0.1,0-0.2-0.1-0.4-0.1l13,6
							c1.9,0.9,3.3,2.3,4,4.3c0.7,2,0.7,4-0.2,5.9l0,0c-0.9,1.9-2.3,3.3-4.3,4c-1.9,0.7-3.8,0.6-5.7-0.1l6.4,2.9
							c1.1,0.5,1.8,1.3,2.3,2.5l0,0C618.1-121.3,619.9-123,620.9-125.4L620.9-125.4z"/>
					</g>
				</g>
			</g>
			<g transform="matrix( 1, 0, 0, 1, 0,0) ">
				<g>
					<g id="Symbol_3_0_Layer0_0_MEMBER_1_MEMBER_0_MEMBER_1_MEMBER_0_FILL">
						<path class="st15" d="M612.2-136.6l-9-2.5c-4.7-1.3-7.7,0.4-9,5.1l-3.8,13.7c-1.3,4.7,0.4,7.7,5.1,9l9,2.5
							c4.8,1.3,7.8-0.4,9.1-5.1l3.8-13.7C618.6-132.3,616.9-135.3,612.2-136.6z"/>
					</g>
				</g>
			</g>
			<g transform="matrix( 1, 0, 0, 1, 0,0) ">
				<g>
					<g id="Symbol_3_0_Layer0_0_MEMBER_1_MEMBER_0_MEMBER_1_MEMBER_1_FILL">
						<path class="st15" d="M608.5-126.9c-0.3,0.7-0.3,1.4,0,2.1l3.7,9.8c0.2,0.7,0.7,1.2,1.5,1.6c0.7,0.3,1.5,0.3,2.2,0
							c0.7-0.2,1.3-0.7,1.6-1.5c0.3-0.7,0.3-1.5,0.1-2.1l-3.6-9.8c-0.3-0.7-0.8-1.3-1.5-1.6s-1.4-0.3-2.2,0
							C609.3-128.1,608.8-127.6,608.5-126.9z"/>
					</g>
				</g>
			</g>
			<g transform="matrix( 1, 0, 0, 1, 0,0) ">
				<g>
					<g id="Symbol_3_0_Layer0_0_MEMBER_1_MEMBER_0_MEMBER_1_MEMBER_2_FILL">
						<path class="st15" d="M616-123c1.3-4.7-0.4-7.7-5.1-9l-9-2.5c-4.7-1.3-7.7,0.4-9,5.1l-3.8,13.6c-1.3,4.7,0.4,7.7,5.1,9l9,2.5
							c4.8,1.3,7.8-0.4,9.1-5.1L616-123z"/>
					</g>
				</g>
			</g>
			<g transform="matrix( 1, 0, 0, 1, 0,0) ">
				<g>
					<g id="Symbol_3_0_Layer0_0_MEMBER_1_MEMBER_0_MEMBER_2_FILL">
						<path class="st3" d="M617.1-135.6c-0.7-2-2-3.4-4-4.3l-13.1-6c-0.1,0-0.2-0.1-0.4-0.1c-0.5-0.2-1-0.3-1.5-0.4
							c-2.1-0.5-4.2-0.3-6.4,0.4c-0.5,0.2-1.1,0.4-1.6,0.7c-0.3,0.1-0.5,0.3-0.8,0.5l-10.3,8c-2.9,2.1-5.9,3.6-9.1,4.5
							c-0.5,0.1-1,0.2-1.5,0.4c-0.6,0.2-1.2,0.5-1.7,0.8c-1.5,0.9-2.6,2.2-3.4,4c-1.1,2.3-1.2,4.7-0.2,7c0.9,2.4,2.5,4.1,4.8,5.1
							l22.4,10.3c2.3,1.1,4.7,1.2,7,0.3c2.4-0.9,4.1-2.5,5.1-4.8c1.1-2.3,1.2-4.7,0.3-7c-0.4-1.2-1-2.1-1.8-3l0,0
							c-0.4-0.4-0.7-0.9-0.9-1.4l0,0c-0.4-1.1-0.4-2.1,0.1-3.2c0,0,0,0,0-0.1l0,0c0.5-1.1,1.3-1.8,2.4-2.3c1.1-0.3,2.2-0.3,3.2,0.1
							l1,0.4c1.9,0.8,3.8,0.8,5.7,0.1c2-0.7,3.4-2.1,4.3-4l0,0C617.8-131.5,617.9-133.5,617.1-135.6z"/>
					</g>
				</g>
			</g>
			<g transform="matrix( 1, 0, 0, 1, 0,0) ">
				<g>
					<g id="Symbol_3_0_Layer0_0_MEMBER_2_FILL">
						<path class="st16" d="M614.3-87.6L603-79.2l-7.2-14.6l-17.4,8.6l12.4,24.9c0.9,1.7,2.1,3.1,3.8,4c1.7,1,3.5,1.4,5.4,1.3
							s3.7-0.8,5.2-1.9l20.6-15.4L614.3-87.6z"/>
					</g>
				</g>
			</g>
			<g transform="matrix( 1, 0, 0, 1, 0,0) ">
				<g>
					<path id="Symbol_3_0_Layer0_0_MEMBER_3_1_STROKES" class="st24" d="M629.8-97.5l5.1-0.7l1.8,3.8"/>
				</g>
			</g>
			<g transform="matrix( 1, 0, 0, 1, 0,0) ">
				<g>
					<g id="Symbol_3_0_Layer0_0_MEMBER_4_MEMBER_0_FILL">
						<path class="st16" d="M630.9-62.7c-3.3-1.7-6.6-2-10.1-0.9l-65.2,20.2c-3.5,1.1-6.1,3.3-7.8,6.6c-1.7,3.3-2,6.6-0.9,10.1
							s3.3,6.1,6.6,7.8s6.6,2,10.1,0.9l65.2-20.2c3.5-1.1,6.2-3.3,7.9-6.6c1.7-3.3,2-6.6,0.9-10.1C636.4-58.4,634.2-61,630.9-62.7z"
							/>
					</g>
				</g>
			</g>
			<g transform="matrix( 1, 0, 0, 1, 0,0) ">
				<g>
					<g id="Symbol_3_0_Layer0_0_MEMBER_4_MEMBER_1_FILL">
						<path class="st3" d="M568.5-29.4l7-15.3h-34c-0.2,0.5-0.3,1-0.5,1.6c0,0.1,0,0.2-0.1,0.3c-1.4,6.1-1.9,10.9-1.7,14.5
							L568.5-29.4z"/>
						<path class="st18" d="M584.7-65c5.8,2.1,9.4,0.4,10.8-4.9l0.2-23.7l-16.4-10.7c-14.5,7.7-27.1,27.5-37.9,59.6h34L584.7-65z"/>
					</g>
				</g>
			</g>
			<g transform="matrix( 1, 0, 0, 1, 0,0) ">
				<g>
					<g id="Symbol_3_0_Layer0_0_MEMBER_4_MEMBER_2_FILL">
						<path class="st15" d="M616.5,6.6H603l-19.8,40.5c-0.7,1.5-0.8,3.1-0.3,4.6c0.5,1.6,1.6,2.7,3.1,3.5c1.5,0.7,3.1,0.8,4.6,0.3
							c1.6-0.5,2.7-1.6,3.5-3.1L616.5,6.6z"/>
					</g>
				</g>
			</g>
			<g transform="matrix( 1, 0, 0, 1, 0,0) ">
				<g>
					<g id="Symbol_3_0_Layer0_0_MEMBER_4_MEMBER_3_FILL">
						<path class="st9" d="M598.5,45h-16.2l-4.1,20.6h6.9l2.4-6.8l3,6.7l22.9-0.1c-0.9-3.1-3.7-5.6-8.2-7.3
							C598.6,56.3,596.5,51.9,598.5,45z"/>
					</g>
				</g>
			</g>
			<g transform="matrix( 1, 0, 0, 1, 0,0) ">
				<g>
					<g id="Symbol_3_0_Layer0_0_MEMBER_4_MEMBER_4_FILL">
						<path class="st15" d="M642.8-27.1c-0.7-1.5-1.9-2.5-3.4-3.1c-1.6-0.5-3.1-0.4-4.6,0.3s-2.5,1.9-3.1,3.4
							c-0.5,1.6-0.5,3.1,0.2,4.7l18.9,39.4c0.7,1.5,1.9,2.5,3.4,3.1c1.6,0.6,3.1,0.5,4.6-0.2c1.5-0.7,2.6-1.9,3.1-3.4
							c0.6-1.6,0.5-3.1-0.2-4.6L642.8-27.1z"/>
					</g>
				</g>
			</g>
			<g transform="matrix( 1, 0, 0, 1, 0,0) ">
				<g>
					<g id="Symbol_3_0_Layer0_0_MEMBER_4_MEMBER_5_FILL">
						<path class="st3" d="M553.5-44.5c-4,0-7.4,1.5-10.2,4.4c-2.8,2.9-4.2,6.3-4.2,10.3s1.5,7.4,4.4,10.2s6.3,4.2,10.3,4.2
							l50.2-0.4l-18,35.4l25.9,13.3l28.7-56.2c1.3-2.2,1.9-4.7,1.9-7.3c0-4-1.5-7.4-4.4-10.2c-2.9-2.8-6.3-4.2-10.3-4.2L553.5-44.5z
							"/>
					</g>
				</g>
			</g>
			<g transform="matrix( 1, 0, 0, 1, 0,0) ">
				<g>
					<g id="Symbol_3_0_Layer0_0_MEMBER_4_MEMBER_6_FILL">
						<path class="st15" d="M638.4-80.6c0-0.3-0.1-0.6-0.3-0.9l-1.9-3.3c-0.3-0.6-0.8-1-1.5-1.1c-0.6-0.1-1.3-0.1-1.8,0.2
							c-0.6,0.3-1,0.8-1.2,1.5c-0.1,0.6-0.1,1.3,0.2,1.8l1.5,2.4l-3.1,9.6c-0.2,0.6-0.1,1.3,0.1,1.8c0.3,0.6,0.8,1,1.4,1.2
							c0.6,0.2,1.3,0.1,1.8-0.1c0.6-0.3,1-0.8,1.2-1.4l3.4-10.7C638.5-80,638.5-80.3,638.4-80.6z"/>
					</g>
				</g>
			</g>
			<g transform="matrix( 1, 0, 0, 1, 0,0) ">
				<g>
					<g id="Symbol_3_0_Layer0_0_MEMBER_4_MEMBER_7_FILL">
						<path class="st15" d="M629-83.8c-0.6,0.3-0.9,0.8-1.1,1.5c-0.1,0.6,0,1.3,0.3,1.8l1.4,2.4l-3.1,9.7c-0.2,0.6-0.1,1.3,0.1,1.8
							c0.3,0.6,0.8,1,1.4,1.2c0.6,0.2,1.3,0.1,1.8-0.1c0.6-0.3,1-0.8,1.2-1.5l3.4-10.7c0.1-0.3,0.1-0.6,0.1-1c0-0.3-0.1-0.7-0.3-1
							l-1.9-3.3c-0.3-0.6-0.8-0.9-1.5-1.1C630.2-84.2,629.7-84.2,629-83.8z"/>
					</g>
				</g>
			</g>
			<g transform="matrix( 1, 0, 0, 1, 0,0) ">
				<g>
					<g id="Symbol_3_0_Layer0_0_MEMBER_4_MEMBER_8_FILL">
						<path class="st3" d="M626.1-85.7l4.7,3.9l17.6-16l-4.5-3.4L626.1-85.7z"/>
					</g>
				</g>
				<g>
					<path id="Symbol_3_0_Layer0_0_MEMBER_4_MEMBER_8_1_STROKES" class="st25" d="M643.9-101.2l4.5,3.4l-17.6,16l-4.7-3.9
						L643.9-101.2z"/>
				</g>
			</g>
			<g transform="matrix( 1, 0, 0, 1, 0,0) ">
				<g>
					<g id="Symbol_3_0_Layer0_0_MEMBER_4_MEMBER_9_FILL">
						<path class="st16" d="M636.8,5.1l24.1-11.5l-24.1-50.3l-24.1,11.5L636.8,5.1z"/>
					</g>
				</g>
			</g>
			<g transform="matrix( 1, 0, 0, 1, 0,0) ">
				<g>
					<g id="Symbol_3_0_Layer0_0_MEMBER_4_MEMBER_10_FILL">
						<path class="st15" d="M629.8-77.2c-1.6-0.1-3.2,0.4-4.4,1.5l-26.7,23.2c-1.3,1.1-1.9,2.5-2,4.2c-0.1,1.6,0.4,3.1,1.5,4.4
							s2.5,1.9,4.1,2s3.2-0.4,4.4-1.5l26.7-23.2c1.3-1.1,1.9-2.5,2-4.1c0.1-1.6-0.4-3.1-1.5-4.4C632.9-76.4,631.5-77,629.8-77.2z"/>
					</g>
				</g>
			</g>
			<g transform="matrix( 1, 0, 0, 1, 0,0) ">
				<g>
					<g id="Symbol_3_0_Layer0_0_MEMBER_4_MEMBER_11_FILL">
						<path class="st18" d="M615.9-70.3L605-60.9l-17.1-34.2l-15.6,7.8l22.1,44c0.8,1.6,1.9,2.8,3.5,3.7c1.6,0.9,3.3,1.2,5,1.1
							c1.7-0.1,3.3-0.8,4.8-1.9L627-56L615.9-70.3z"/>
					</g>
				</g>
			</g>
			<g transform="matrix( 1, 0, 0, 1, 0,0) ">
				<g>
					<g id="Symbol_3_0_Layer0_0_MEMBER_4_MEMBER_12_FILL">
						<path class="st26" d="M647.8-99.1l-4.4-3.4L625.6-87l4.7,3.9L647.8-99.1z"/>
					</g>
				</g>
			</g>
			<g transform="matrix( 1, 0, 0, 1, 0,0) ">
				<g>
					<g id="Symbol_3_0_Layer0_0_MEMBER_4_MEMBER_13_FILL">
						<path class="st15" d="M634.1-88.7c-0.6-0.2-1.3-0.1-1.8,0.2l-3.8,2c-0.5,0.2-0.8,0.6-1.1,1.1l-1.6,3.8c0,0.1-0.1,0.2-0.2,0.4
							l-4.9,10.8c-0.3,0.6-0.3,1.3,0,1.8c0.2,0.6,0.7,1.1,1.3,1.4c0.6,0.3,1.3,0.3,1.9,0c0.6-0.2,1.1-0.6,1.4-1.3l1.2-2.7
							c0,0,0,0,0.1,0c0.5,0.5,1.1,0.7,1.7,0.7c0.7,0,1.3-0.2,1.7-0.7c0.5-0.5,0.7-1.1,0.7-1.7l-0.2-7.1l1.2-2.7l3.1-1.6
							c0.6-0.3,1-0.8,1.2-1.5c0.2-0.6,0.1-1.3-0.2-1.8C635.2-88.2,634.7-88.5,634.1-88.7z"/>
					</g>
				</g>
			</g>
			<g transform="matrix( 1, 0, 0, 1, 0,0) ">
				<g>
					<g id="Symbol_3_0_Layer0_0_MEMBER_4_MEMBER_14_FILL">
						<path class="st9" d="M675.8,11.8c-6.7,2.5-11.5,0-14-7.3l-14.1,10.2l9.4,20.6l6-4.4l-2.2-7.5l6.9,4l19.8-14.6
							C684.9,10.8,681,10.4,675.8,11.8z"/>
					</g>
				</g>
			</g>
		</g>
		<g transform="matrix( 1, 0, 0, 1, 0,0) ">
			<g>
				<g id="Layer0_22_FILL">
					<path class="st20" d="M474.3,280.9V253H3.5v27.9H474.3z"/>
				</g>
			</g>
		</g>
		<g transform="matrix( 1, 0, 0, 1, 0,0) ">
			<g>
				<g id="Layer0_3_MEMBER_2_FILL_1_">
					<path class="st9" d="M288.6,226.3H-2.5v57.6h291.1V226.3z"/>
				</g>
			</g>
		</g>
		<g>
			<g transform="matrix( 1, 0, 0, 1, 0,0) ">
				<g>
					<g id="Layer0_1_MEMBER_0_MEMBER_0_FILL_3_">
						<path class="st4" d="M77.2,187.5H25v52.2h52.2V187.5z"/>
					</g>
				</g>
			</g>
			<g transform="matrix( 1, 0, 0, 1, 0,0) ">
				<g>
					<g id="Layer0_1_MEMBER_0_MEMBER_1_FILL_2_">
						<path class="st4" d="M57.2,169.9L57.2,169.9l-0.1,5.4v13.2h5.2v-13.1L57.2,169.9 M45,169.9l-5.1,5.5v13.1h5.2v-13.2L45,169.9
							L45,169.9z"/>
						<path class="st2" d="M45,169.9v5.4h12.1v-5.4H45z"/>
					</g>
				</g>
			</g>
			<g transform="matrix( 1, 0, 0, 1, 0,0) ">
				<g>
					<g id="Layer0_1_MEMBER_1_FILL_3_">
						<path class="st1" d="M61.4,199.8l-6.2-0.8l-1.1,11.8l-2.6-10l-6,1.7l2.4,9.5l-9,2.1l2.1,7.8l15.9,2.7l3.4-8.2L61.4,199.8
							 M50.6,214.2c0.1,0.2,0.2,0.5,0.3,0.8s0,0.5-0.2,0.7S50.3,216,50,216s-0.6,0-0.8-0.3c-0.2-0.2-0.3-0.4-0.3-0.7
							s0.1-0.5,0.3-0.7c0.1-0.2,0.3-0.3,0.6-0.3C50.1,213.9,50.4,214,50.6,214.2 M55.6,215.4c0,0.3-0.1,0.5-0.3,0.7
							s-0.4,0.4-0.8,0.4c-0.2,0-0.5-0.1-0.7-0.3s-0.3-0.4-0.3-0.7c0-0.2,0-0.5,0.2-0.8c0.2-0.2,0.5-0.2,0.8-0.2s0.6,0.1,0.7,0.2
							C55.5,214.9,55.6,215.1,55.6,215.4z"/>
					</g>
				</g>
			</g>
		</g>
		<g>
			<g transform="matrix( 1, 0, 0, 1, 0,0) ">
				<g>
					<g id="Layer0_6_MEMBER_0_FILL">
						<path class="st27" d="M247.3,246.1v6.4h-46.8v-6.4H247.3z"/>
					</g>
				</g>
			</g>
			<g transform="matrix( 1, 0, 0, 1, 0,0) ">
				<g>
					<g id="Layer0_6_MEMBER_1_FILL">
						<path class="st4" d="M170.7,169.3h107.7v76.8H170.7V169.3z"/>
					</g>
				</g>
				<g>
					<path class="st27" d="M168.6,167.2h111.9v81H168.6V167.2z M276.2,171.4H172.7V244h103.5V171.4z"/>
				</g>
			</g>
			<g transform="matrix( 1, 0, 0, 1, 0,0) ">
				<g>
					<g id="Layer0_6_MEMBER_2_FILL">
						<path class="st2" d="M231.4,174.2h40.5v64h-40.5V174.2L231.4,174.2z"/>
					</g>
				</g>
			</g>
			<g transform="matrix( 1, 0, 0, 1, 0,0) ">
				<g>
					<g id="Layer0_6_MEMBER_3_MEMBER_0_MEMBER_0_FILL">
						<path class="st10" d="M175.4,212.8v-6.6H215v6.6H175.4z"/>
					</g>
				</g>
			</g>
			<g transform="matrix( 1, 0, 0, 1, 0,0) ">
				<g>
					<g id="Layer0_6_MEMBER_3_MEMBER_0_MEMBER_0_MEMBER_0_FILL">
						<path class="st1" d="M175.4,200.4v-6.6H187v6.6H175.4z"/>
					</g>
				</g>
			</g>
			<g transform="matrix( 1, 0, 0, 1, 0,0) ">
				<g>
					<g id="Layer0_6_MEMBER_3_MEMBER_0_MEMBER_0_MEMBER_1_FILL">
						<path class="st28" d="M175.4,206.9v-6.6H215v6.6H175.4z"/>
					</g>
				</g>
			</g>
			<g transform="matrix( 1, 0, 0, 1, 0,0) ">
				<g>
					<g id="Layer0_6_MEMBER_3_MEMBER_0_MEMBER_1_FILL">
						<path class="st10" d="M217,174.3h11.7v6.6H217V174.3L217,174.3z"/>
					</g>
				</g>
			</g>
			<g transform="matrix( 1, 0, 0, 1, 0,0) ">
				<g>
					<g id="Layer0_6_MEMBER_3_MEMBER_0_MEMBER_2_FILL">
						<path class="st10" d="M217,180.7h11.7v6.6H217V180.7z"/>
					</g>
				</g>
			</g>
			<g transform="matrix( 1, 0, 0, 1, 0,0) ">
				<g>
					<g id="Layer0_6_MEMBER_3_MEMBER_0_MEMBER_3_FILL">
						<path class="st10" d="M217,187l11.7,0.1v6.6H217V187z"/>
					</g>
				</g>
			</g>
			<g transform="matrix( 1, 0, 0, 1, 0,0) ">
				<g>
					<g id="Layer0_6_MEMBER_3_MEMBER_0_MEMBER_4_FILL">
						<path class="st10" d="M217,193.5h11.7v6.6H217V193.5z"/>
					</g>
				</g>
			</g>
			<g transform="matrix( 1, 0, 0, 1, 0,0) ">
				<g>
					<g id="Layer0_6_MEMBER_3_MEMBER_0_MEMBER_5_FILL">
						<path class="st10" d="M217,199.9h11.7v6.6H217V199.9z"/>
					</g>
				</g>
			</g>
			<g transform="matrix( 1, 0, 0, 1, 0,0) ">
				<g>
					<g id="Layer0_6_MEMBER_3_MEMBER_0_MEMBER_6_FILL">
						<path class="st1" d="M217,206.3h11.7v6.6H217V206.3z"/>
					</g>
				</g>
			</g>
			<g transform="matrix( 1, 0, 0, 1, 0,0) ">
				<g>
					<g id="Layer0_6_MEMBER_3_MEMBER_0_MEMBER_7_FILL">
						<path class="st10" d="M217.1,212.7h11.6v6.6h-11.6V212.7z"/>
					</g>
				</g>
			</g>
			<g transform="matrix( 1, 0, 0, 1, 0,0) ">
				<g>
					<g id="Layer0_6_MEMBER_3_MEMBER_0_MEMBER_8_FILL">
						<path class="st28" d="M217.1,219h11.6v6.6h-11.6V219z"/>
					</g>
				</g>
			</g>
			<g transform="matrix( 1, 0, 0, 1, 0,0) ">
				<g>
					<g id="Layer0_6_MEMBER_3_MEMBER_0_MEMBER_9_FILL">
						<path class="st17" d="M217.1,225.4h11.6v6.6h-11.6V225.4z"/>
					</g>
				</g>
			</g>
			<g transform="matrix( 1, 0, 0, 1, 0,0) ">
				<g>
					<g id="Layer0_6_MEMBER_3_MEMBER_0_MEMBER_10_FILL">
						<path class="st1" d="M217.1,231.8h11.6v6.6h-11.6V231.8z"/>
					</g>
				</g>
			</g>
			<g transform="matrix( 1, 0, 0, 1, 0,0) ">
				<g>
					<g id="Layer0_6_MEMBER_3_MEMBER_0_MEMBER_11_FILL">
						<path class="st10" d="M215,238.4h-39.6v-25.6H215V238.4z"/>
					</g>
				</g>
			</g>
			<g transform="matrix( 1, 0, 0, 1, 0,0) ">
				<g>
					<g id="Layer0_6_MEMBER_3_MEMBER_0_MEMBER_12_MEMBER_0_FILL">
						<path class="st10" d="M203.4,187.3H215v6.6h-11.6V187.3z"/>
					</g>
				</g>
			</g>
			<g transform="matrix( 1, 0, 0, 1, 0,0) ">
				<g>
					<g id="Layer0_6_MEMBER_3_MEMBER_0_MEMBER_12_MEMBER_1_FILL">
						<path class="st10" d="M175.4,187.4v-6.6H215v6.6H175.4z"/>
					</g>
				</g>
			</g>
			<g transform="matrix( 1, 0, 0, 1, 0,0) ">
				<g>
					<g id="Layer0_6_MEMBER_3_MEMBER_0_MEMBER_12_MEMBER_2_FILL">
						<path class="st10" d="M175.4,174.3H215v6.6h-39.6V174.3z"/>
					</g>
				</g>
			</g>
			<g transform="matrix( 1, 0, 0, 1, 0,0) ">
				<g>
					<g id="Layer0_6_MEMBER_4_MEMBER_0_FILL">
						<path class="st1" d="M271.4,231.3v6.6h-39.6v-6.6H271.4z"/>
					</g>
				</g>
			</g>
			<g transform="matrix( 1, 0, 0, 1, 0,0) ">
				<g>
					<g id="Layer0_6_MEMBER_5_MEMBER_0_FILL">
						<path class="st1" d="M271.4,224.8v6.6h-39.6v-6.6H271.4z"/>
					</g>
				</g>
			</g>
			<g transform="matrix( 1, 0, 0, 1, 0,0) ">
				<g>
					<g id="Layer0_6_MEMBER_6_FILL">
						<path class="st29" d="M231.8,174.3h39.6v6.6h-39.6L231.8,174.3L231.8,174.3z"/>
					</g>
				</g>
			</g>
			<g>
				<g id="Layer0_6_MEMBER_7_FILL">
					<path class="st29" d="M256.3,189.7h15.1v-6.6h-15.1V189.7 M254.5,189.7v-6.6h-22.7v6.6H254.5z"/>
				</g>
			</g>
			<g transform="matrix( 1, 0, 0, 1, 0,0) ">
				<g>
					<g id="Layer0_6_MEMBER_8_FILL">
						<path class="st29" d="M271.4,218v6.6h-39.6V218H271.4z"/>
					</g>
				</g>
			</g>
			<g>
				<g transform="matrix( 1, 0, 0, 1, 0,0) ">
					<g>
						<g id="Layer0_8_FILL_3_">
							<path class="st5" d="M158.8,150.2c2.4,2.4,3.5,5.3,3.5,8.6s-1.2,6.3-3.5,8.6c-2.4,2.4-5.3,3.6-8.6,3.6h-22.7
								c-3.3,0-6.3-1.2-8.6-3.6c-2.4-2.4-3.6-5.2-3.6-8.6c0-3.3,1.2-6.3,3.6-8.6c2.4-2.4,5.2-3.5,8.6-3.5h22.7
								C153.5,146.6,156.4,147.8,158.8,150.2z"/>
						</g>
					</g>
				</g>
				<g transform="matrix( 1, 0, 0, 1, 0,0) ">
					<g>
						<g id="Layer0_9_FILL_2_">
							<path class="st5" d="M99.9,211.3c-3.1-3.1-4.6-6.7-4.6-11s1.5-8,4.6-11.1s6.7-4.6,11.1-4.6h29c4.3,0,8,1.5,11.1,4.6
								s4.6,6.7,4.6,11.1c0,4.3-1.5,8-4.6,11c-3.1,3.1-6.7,4.6-11.1,4.6h-29C106.6,215.9,102.9,214.4,99.9,211.3z"/>
						</g>
					</g>
				</g>
				<g transform="matrix( 1, 0, 0, 1, 0,0) ">
					<g>
						<g id="Layer0_10_FILL">
							<path class="st30" d="M149.2,147.3c5.7,0,8.5,2.9,8.5,8.5v28.8c0,5.7-2.9,8.5-8.5,8.5h-21.6c-5.7,0-8.5-2.9-8.5-8.5v-28.8
								c0-5.7,2.9-8.5,8.5-8.5H149.2z"/>
						</g>
					</g>
				</g>
				<g transform="matrix( 1, 0, 0, 1, 0,0) ">
					<g>
						<g id="Layer0_11_FILL_1_">
							<path class="st30" d="M147.3,165.6c0-1.1,0.4-2.1,1.2-2.9c0.8-0.8,1.7-1.2,2.9-1.2c1.1,0,2.1,0.4,2.9,1.2l6.7,6.7
								c0.8,0.8,1.2,1.7,1.2,2.9s-0.4,2-1.2,2.9c-0.8,0.8-1.7,1.2-2.9,1.2s-2-0.4-2.9-1.2l-6.7-6.7
								C147.7,167.6,147.3,166.7,147.3,165.6z"/>
						</g>
					</g>
				</g>
				<g transform="matrix( 1, 0, 0, 1, 0,0) ">
					<g>
						<g id="Layer0_12_FILL_1_">
							<path class="st5" d="M158.1,150.3c0,4.3-1.5,8-4.6,11c-3.1,3.1-6.7,4.6-11.1,4.6h-21v-31.2h21c4.3,0,8,1.5,11.1,4.6
								C156.6,142.3,158.1,146,158.1,150.3z"/>
						</g>
					</g>
				</g>
				<g transform="matrix( 1, 0, 0, 1, 0,0) ">
					<g>
						<g id="Layer0_13_FILL">
							<path class="st30" d="M190.4,202.5c2.1-0.7,4.2-0.5,6.2,0.5c0.3,0.2,0.7,0.3,1,0.4l-12.4,45.9h-20c0.2-0.5,0.4-0.9,0.7-1.4
								c0.6-1.3,1.2-2.5,1.8-3.8c0.9-1.8,1.7-3.6,2.6-5.5c1-2.2,2.1-4.4,3.1-6.5c1.1-2.3,2.2-4.6,3.3-6.9c2.3-4.8,4.7-9.6,6.9-14.5
								c0.6-1.3,1.3-2.6,1.8-3.9c0.4-1.1,0.8-2.2,1.7-3.1c0.9-0.8,2.1-1,3.2-1.3C190.3,202.5,190.3,202.5,190.4,202.5z"/>
						</g>
					</g>
				</g>
				<g transform="matrix( 1, 0, 0, 1, 0,0) ">
					<g>
						
							<rect x="155.2" y="243.9" transform="matrix(0.3711 -0.9286 0.9286 0.3711 -127.0866 321.0603)" class="st2" width="36.5" height="20.9"/>
					</g>
					<g>
						<path class="st2" d="M166.7,281.8c1.5,0,3-0.3,4.4-1c5.2-2.5,7.5-8.7,5-13.9L150,211.3c-2.5-5.2-8.7-7.5-13.9-5
							s-7.5,8.7-5,13.9l26.1,55.6C159,279.5,162.8,281.8,166.7,281.8z"/>
					</g>
				</g>
				<g transform="matrix( 1, 0, 0, 1, 0,0) ">
					<g>
						<g id="Layer0_15_FILL">
							<path class="st5" d="M80.3,196.2l20.5-20.5c3.1-3.1,6.7-4.6,11.1-4.6c4.3,0,8,1.6,11.1,4.6c3.1,3.1,4.6,6.7,4.6,11
								s-1.5,8-4.6,11.1l-20.5,20.5c-3.1,3.1-6.7,4.6-11.1,4.6c-4.3,0-8-1.5-11.1-4.6s-4.6-6.7-4.6-11.1
								C75.7,202.9,77.3,199.3,80.3,196.2z"/>
						</g>
					</g>
				</g>
				<g transform="matrix( 1, 0, 0, 1, 0,0) ">
					<g>
						<g id="Layer0_16_FILL">
							<path class="st4" d="M94.8,232c-1.1-7.7,0.7-14.6,5.3-20.8c4.7-6.2,10.9-9.8,18.5-10.9c0.9-0.1,1.8-0.2,2.6-0.4l18.3,6.2
								c2.3,4.2,9.2,16.9,20.7,38.1c3,7.2,0.4,13.4-7.7,18.5l8.7,37.7l-59.5-18.7L94.8,232z"/>
						</g>
					</g>
				</g>
				<g transform="matrix( 1, 0, 0, 1, 0,0) ">
					<g>
						<g id="Layer0_17_FILL">
							<path class="st30" d="M133.9,233.3L117,192.2l28.4-1.1L133.9,233.3z"/>
						</g>
					</g>
				</g>
				<g transform="matrix( 1, 0, 0, 1, 0,0) ">
					<g>
						<g id="Layer0_18_FILL_1_">
							<path class="st5" d="M118.5,142.9c4.3,0,8,1.5,11.1,4.6s4.6,6.7,4.6,11.1v29c0,4.3-1.6,8-4.6,11c-3.1,3.1-6.7,4.6-11,4.6
								s-8-1.6-11.1-4.6s-4.6-6.7-4.6-11v-29c0-4.3,1.5-8,4.6-11.1C110.5,144.4,114.2,142.9,118.5,142.9z"/>
						</g>
					</g>
				</g>
				<g transform="matrix( 1, 0, 0, 1, 0,0) ">
					<g>
						<g id="Layer0_19_FILL">
							<path class="st5" d="M97.9,179.6v-21h31.2v21c0,4.3-1.6,8-4.6,11c-3.1,3.1-6.7,4.6-11,4.6s-8-1.6-11.1-4.6
								C99.4,187.6,97.9,184,97.9,179.6z"/>
						</g>
					</g>
				</g>
				<g transform="matrix( 1, 0, 0, 1, 0,0) ">
					<g>
						<g id="Layer0_20_FILL">
							<path class="st30" d="M126.5,171.4c0-1.5,0.5-2.8,1.6-3.9c1.1-1.1,2.4-1.6,3.9-1.6h10.2c1.5,0,2.8,0.5,3.9,1.6
								c1.1,1.1,1.6,2.4,1.6,3.9s-0.5,2.8-1.6,3.8c-1.1,1.1-2.3,1.6-3.9,1.6H132c-1.5,0-2.8-0.5-3.9-1.6
								C127,174.2,126.5,172.9,126.5,171.4z"/>
						</g>
					</g>
				</g>
				<g transform="matrix( 1, 0, 0, 1, 0,0) ">
					<g>
						<path class="st2" d="M129.9,184.8c-1.4-1.4-2.1-3.1-2.1-5s0.7-3.7,2.1-5c1.4-1.4,3.1-2.1,5-2.1s3.7,0.7,5,2.1
							c1.4,1.4,2.1,3.1,2.1,5s-0.7,3.6-2.1,5c-1.4,1.4-3.1,2.1-5,2.1C133,186.9,131.3,186.2,129.9,184.8z M131.4,176.1
							c-1,1-1.5,2.2-1.5,3.6c0,1.4,0.5,2.6,1.5,3.5c1,1,2.1,1.5,3.5,1.5s2.6-0.5,3.6-1.5s1.5-2.1,1.5-3.5s-0.5-2.6-1.5-3.6
							s-2.2-1.5-3.6-1.5S132.3,175.2,131.4,176.1z"/>
					</g>
				</g>
				<g transform="matrix( 1, 0, 0, 1, 0,0) ">
					<g>
						<g id="Layer0_22_FILL_1_">
							<path class="st5" d="M97.9,164.4v-7.6c0-6.2,2.2-11.4,6.5-15.8c4.4-4.3,9.7-6.5,15.8-6.5c6.2,0,11.4,2.1,15.7,6.5
								c4.4,4.4,6.6,9.7,6.6,15.8v7.6H97.9z"/>
						</g>
					</g>
				</g>
				<g transform="matrix( 0.7866668701171875, 0.4580078125, -0.4580078125, 0.7866668701171875, 952.85,434.05) ">
					<g transform="matrix( 1, 0, 0, 1, 0,0) ">
						<g>
							<g id="Symbol_1_0_Layer0_0_MEMBER_0_FILL_1_">
								<path class="st31" d="M-845.5,181.6h11.9l3.3,12.3C-832.4,191.5-837.4,187.3-845.5,181.6z"/>
							</g>
						</g>
						<g>
							<path class="st31" d="M-828.9,196.6c-1.3,0.7-2.8,0.4-3.7-0.7c-1.3-1.6-4.9-4.8-14.7-11.8c-1.1-0.8-1.6-2.2-1.1-3.4
								c0.4-1.3,1.6-2.1,2.9-2.1h11.9c1.4,0,2.6,0.9,3,2.3l3.3,12.3c0.3,1.4-0.2,2.7-1.4,3.4C-828.8,196.5-828.8,196.6-828.9,196.6z
								 M-836.2,184.6c0.1,0.1,0.2,0.2,0.4,0.3l-0.1-0.3H-836.2z"/>
						</g>
					</g>
					<g transform="matrix( 1, 0, 0, 1, 0,0) ">
						<g>
							<path class="st30" d="M-835.8,202.6c0.5-0.3,1-0.8,1.4-1.4l10.7-18c1.1-1.8,0.5-4.2-1.3-5.2c-1.8-1.1-4.2-0.5-5.2,1.3
								l-10.7,18c-1.1,1.8-0.5,4.2,1.3,5.2C-838.4,203.3-837,203.3-835.8,202.6z"/>
						</g>
					</g>
					<g transform="matrix( 1, 0, 0, 1, 0,0) ">
						<g>
							<path class="st30" d="M-849.2,208.7c0.8-0.5,1.5-1.3,1.6-2.4l2.4-13c2.1,1.7,4.9,2.8,8.4,3.1c1.9,0.2,3.6-1.2,3.8-3.1
								c0.2-1.9-1.2-3.6-3.1-3.8c-4.6-0.5-6.6-2.4-7-6.6l11.6-14.5c1.2-1.5,1-3.6-0.5-4.9c-1.5-1.2-3.6-1-4.9,0.5l-12.4,15.5
								c-0.4,0.4-0.6,1-0.7,1.6l-4.4,23.7c-0.3,1.9,0.9,3.7,2.8,4C-850.7,209.3-849.9,209.2-849.2,208.7z"/>
						</g>
					</g>
					<g transform="matrix( 1, 0, 0, 1, 0,0) ">
						<g>
							<g id="Symbol_1_0_Layer0_0_MEMBER_3_FILL">
								<path class="st30" d="M-842.2,214.7l-9.2-7.9l4.8-20.8l14.4,11.5L-842.2,214.7z"/>
							</g>
						</g>
					</g>
				</g>
				<g transform="matrix( 1, 0, 0, 1, 0,0) ">
					<g>
						<g id="Layer0_24_FILL_1_">
							<path class="st4" d="M71.2,281.1l17.4-64c4.2-13.9,14-18.5,29.5-13.7l8.3,86L71.2,281.1z"/>
						</g>
					</g>
				</g>
			</g>
		</g>
		<g transform="matrix( 1, 0, 0, 1, 0,0) ">
			<g>
				<g id="Layer0_12_MEMBER_0_MEMBER_0_FILL_1_">
					<path class="st20" d="M190.1-37.5h-1.5v147h1.5V-37.5z"/>
				</g>
			</g>
		</g>
		<g transform="matrix( 1, 0, 0, 1, 0,0) ">
			<g>
				<g id="Layer0_12_MEMBER_0_MEMBER_1_FILL_1_">
					<path class="st5" d="M209.5,126c0-0.1,0-0.2,0-0.3c0-5.5-1.9-10.1-5.8-14c-3.9-3.9-8.5-5.8-14-5.8s-10.1,1.9-14,5.8
						s-5.8,8.5-5.8,14c0,0.1,0,0.2,0,0.3H209.5z"/>
				</g>
			</g>
		</g>
		<g transform="matrix( 1, 0, 0, 1, 0,0) ">
			<g>
				<g id="Layer0_13_MEMBER_0_MEMBER_0_FILL_1_">
					<path class="st20" d="M285.6-37.5h-1.5v147h1.5V-37.5z"/>
				</g>
			</g>
		</g>
		<g transform="matrix( 1, 0, 0, 1, 0,0) ">
			<g>
				<g id="Layer0_13_MEMBER_0_MEMBER_1_FILL_1_">
					<path class="st5" d="M265.4,125.6c0,0.1,0,0.2,0,0.4H305c0-0.1,0-0.2,0-0.4c0-5.5-1.9-10.1-5.8-14s-8.5-5.8-14-5.8
						s-10.1,1.9-14,5.8C267.3,115.5,265.4,120.1,265.4,125.6z"/>
				</g>
			</g>
		</g>
		<g transform="matrix( 1, 0, 0, 1, 0,0) ">
			<g>
				<g id="Layer0_12_MEMBER_0_MEMBER_0_FILL_2_">
					<path class="st20" d="M94.6-37.5h-1.5v147h1.5V-37.5z"/>
				</g>
			</g>
		</g>
		<g transform="matrix( 1, 0, 0, 1, 0,0) ">
			<g>
				<g id="Layer0_12_MEMBER_0_MEMBER_1_FILL_2_">
					<path class="st5" d="M114,126c0-0.1,0-0.2,0-0.3c0-5.5-1.9-10.1-5.8-14s-8.5-5.8-14-5.8s-10.1,1.9-14,5.8s-5.8,8.5-5.8,14
						c0,0.1,0,0.2,0,0.3H114z"/>
				</g>
			</g>
		</g>
	</g>
</g>
</svg>
