<?xml version="1.0" encoding="UTF-8"?><svg id="a" xmlns="http://www.w3.org/2000/svg" viewBox="0 0 24 24"><defs><style>.b{fill:#333;}</style></defs><path class="b" d="M14.12,4.76v-1.02h2c.28,0,.5-.22,.5-.5s-.22-.5-.5-.5h-5c-.28,0-.5,.22-.5,.5s.22,.5,.5,.5h2v1.02c-4.32,.26-7.76,3.85-7.76,8.23s3.71,8.26,8.26,8.26,8.26-3.71,8.26-8.26-3.44-7.97-7.76-8.23Zm-.5,15.49c-4,0-7.26-3.26-7.26-7.26s3.26-7.26,7.26-7.26,7.26,3.26,7.26,7.26-3.26,7.26-7.26,7.26Z"/><path class="b" d="M13.62,17.87c-.28,0-.5,.22-.5,.5v.6c0,.28,.22,.5,.5,.5s.5-.22,.5-.5v-.6c0-.28-.22-.5-.5-.5Z"/><path class="b" d="M13.62,8.14c.28,0,.5-.22,.5-.5v-.6c0-.28-.22-.5-.5-.5s-.5,.22-.5,.5v.6c0,.28,.22,.5,.5,.5Z"/><path class="b" d="M8.26,12.5h-.6c-.28,0-.5,.22-.5,.5s.22,.5,.5,.5h.6c.28,0,.5-.22,.5-.5s-.22-.5-.5-.5Z"/><path class="b" d="M19.59,12.5h-.6c-.28,0-.5,.22-.5,.5s.22,.5,.5,.5h.6c.28,0,.5-.22,.5-.5s-.22-.5-.5-.5Z"/><path class="b" d="M9.48,16.44l-.42,.42c-.2,.2-.2,.51,0,.71,.1,.1,.23,.15,.35,.15s.26-.05,.35-.15l.42-.42c.2-.2,.2-.51,0-.71s-.51-.2-.71,0Z"/><path class="b" d="M17.43,9.71c.13,0,.26-.05,.35-.15l.42-.42c.2-.2,.2-.51,0-.71s-.51-.2-.71,0l-.42,.42c-.2,.2-.2,.51,0,.71,.1,.1,.23,.15,.35,.15Z"/><path class="b" d="M9.77,8.43c-.2-.2-.51-.2-.71,0-.2,.2-.2,.51,0,.71l.42,.42c.1,.1,.23,.15,.35,.15s.26-.05,.35-.15c.19-.2,.19-.51,0-.71l-.42-.42Z"/><path class="b" d="M17.78,16.44c-.2-.2-.51-.2-.71,0-.2,.19-.2,.51,0,.71l.42,.42c.1,.1,.23,.15,.35,.15s.26-.05,.35-.15c.2-.2,.2-.51,0-.71l-.42-.42Z"/><path class="b" d="M19.2,11.06c.25-.11,.37-.41,.25-.66s-.41-.37-.66-.25l-3.34,1.49c-.42-.56-1.08-.93-1.83-.93-1.26,0-2.29,1.03-2.29,2.29s1.03,2.29,2.29,2.29,2.29-1.03,2.29-2.29c0-.15-.02-.31-.05-.45l3.33-1.48Zm-4.28,1.93c0,.71-.58,1.29-1.29,1.29s-1.29-.58-1.29-1.29,.58-1.29,1.29-1.29c.34,0,.64,.14,.87,.35l-1.08,.48c-.25,.11-.37,.41-.25,.66,.08,.19,.27,.3,.46,.3,.07,0,.14-.01,.2-.04l1.08-.48s0,.02,0,.02Z"/><path class="b" d="M2.61,13.5h.5c.28,0,.5-.22,.5-.5s-.22-.5-.5-.5h-.5c-.28,0-.5,.22-.5,.5s.22,.5,.5,.5Z"/><path class="b" d="M3.53,14.48h-.92c-.28,0-.5,.22-.5,.5s.22,.5,.5,.5h.92c.28,0,.5-.22,.5-.5s-.22-.5-.5-.5Z"/><path class="b" d="M3.53,10.52h-.92c-.28,0-.5,.22-.5,.5s.22,.5,.5,.5h.92c.28,0,.5-.22,.5-.5s-.22-.5-.5-.5Z"/></svg>