<?xml version="1.0" encoding="UTF-8"?><svg id="a" xmlns="http://www.w3.org/2000/svg" xmlns:xlink="http://www.w3.org/1999/xlink" viewBox="0 0 24 24"><defs><style>.c,.d{fill:none;}.e{fill:#333;}.f{clip-path:url(#b);}.d{stroke:#333;stroke-linecap:round;}</style><clipPath id="b"><rect class="c" x="4.22" y="2.91" width="16.05" height="18.1"/></clipPath></defs><path class="d" d="M11.25,17.91l.08-.03c.92-.31,1.92-.31,2.85,0l.08,.03"/><g class="f"><path class="e" d="M9.76,9.68c-.95,.85-1.5,2.05-1.5,3.33v7.5c0,.28,.22,.5,.5,.5s.5-.22,.5-.5v-7.5c0-.63,.19-1.23,.5-1.76v-1.57Zm6,3.83v-2.26c.31,.53,.5,1.13,.5,1.76v7.5c0,.28,.22,.5,.5,.5s.5-.22,.5-.5v-7.5c0-1.28-.55-2.48-1.5-3.34"/><path class="e" d="M20.2,7.19c-.57-.98-1.31-1.83-2.2-2.51-.9-.69-1.9-1.19-3-1.48-1.09-.29-2.21-.36-3.33-.22-1.12,.15-2.19,.51-3.16,1.08-.98,.56-1.83,1.31-2.51,2.2-.69,.9-1.18,1.9-1.48,3-.3,1.09-.37,2.21-.23,3.33,.15,1.12,.51,2.19,1.07,3.17,.09,.16,.26,.25,.43,.25,.08,0,.17-.02,.25-.07,.24-.14,.32-.44,.18-.68-.5-.87-.82-1.81-.95-2.8-.13-.99-.07-1.98,.19-2.94,.26-.96,.7-1.86,1.3-2.65,.61-.79,1.35-1.45,2.22-1.95,.86-.5,1.8-.82,2.79-.95,.99-.13,1.98-.07,2.94,.19,.97,.26,1.86,.7,2.65,1.31,.79,.61,1.45,1.35,1.95,2.22,.14,.24,.45,.32,.68,.18,.24-.14,.32-.44,.18-.68h.03Z"/><path class="e" d="M16.67,6.36c-.22-.17-.53-.13-.7,.09s-.13,.53,.09,.7c.58,.44,1.05,.99,1.41,1.61,.09,.16,.26,.25,.43,.25,.08,0,.17-.02,.25-.07,.24-.14,.32-.44,.18-.68-.43-.74-.99-1.38-1.67-1.91h.01Z"/><path class="e" d="M9.96,6.76c.63-.36,1.31-.6,2.03-.69,.72-.09,1.44-.05,2.14,.14,.27,.07,.54-.09,.61-.35,.07-.27-.09-.54-.35-.61-.83-.22-1.68-.28-2.53-.17-.85,.11-1.66,.39-2.4,.82-.74,.43-1.39,.99-1.91,1.67-.52,.68-.9,1.45-1.12,2.27-.07,.27,.09,.54,.35,.61,.04,.01,.09,.02,.13,.02,.22,0,.42-.15,.48-.37,.19-.7,.51-1.35,.95-1.92,.44-.58,.98-1.05,1.61-1.42h0Z"/><path class="e" d="M14.64,15.04h-3.76c-.62,0-1.13-.5-1.13-1.13v-4.54c0-.45,.18-.86,.5-1.12,1.4-1.15,3.6-1.15,5.01,0,.32,.26,.5,.67,.5,1.12v4.54c0,.62-.5,1.13-1.13,1.13h.01Zm-1.88-6.66c-.67,0-1.35,.21-1.87,.64-.08,.07-.13,.2-.13,.35v4.54c0,.07,.06,.13,.13,.13h3.76c.07,0,.13-.06,.13-.13v-4.54c0-.15-.05-.28-.13-.35-.53-.43-1.2-.64-1.87-.64h-.02Z"/></g><path class="d" d="M11.25,17.91l.08-.03c.92-.31,1.92-.31,2.85,0l.08,.03"/></svg>