<?xml version="1.0" encoding="UTF-8"?><svg id="a" xmlns="http://www.w3.org/2000/svg" viewBox="0 0 24 24"><defs><style>.b,.c{fill:#333;}.c{fill-rule:evenodd;}</style></defs><path class="b" d="M17,22H7c-.55,0-1-.45-1-1V3c0-.55,.45-1,1-1h10c.55,0,1,.45,1,1V21c0,.55-.45,1-1,1ZM7,3V21h10V3H7Zm0-.5v.5h0v-.5Z"/><path class="c" d="M12.68,11.76l-.35-1.49-1.1,.21,.35,1.49-1.58,.3,.28,1.19,2.78,.53,.64-1.29,.3-2.6-1.12-.11-.21,1.76Z"/><circle class="b" cx="12" cy="19" r="1"/><path class="b" d="M12,7c-.28,0-.5-.22-.5-.5v-1c0-.28,.22-.5,.5-.5s.5,.22,.5,.5v1c0,.28-.22,.5-.5,.5Z"/><path class="b" d="M9,7.5c-.13,0-.26-.05-.35-.15l-.5-.5c-.2-.2-.2-.51,0-.71s.51-.2,.71,0l.5,.5c.2,.2,.2,.51,0,.71-.1,.1-.23,.15-.35,.15Z"/><path class="b" d="M15,7.5c-.13,0-.26-.05-.35-.15-.2-.2-.2-.51,0-.71l.5-.5c.2-.2,.51-.2,.71,0s.2,.51,0,.71l-.5,.5c-.1,.1-.23,.15-.35,.15Z"/><path class="b" d="M14,16h-4c-1.1,0-2-.9-2-2v-4c0-1.1,.9-2,2-2h4c1.1,0,2,.9,2,2v4c0,1.1-.9,2-2,2Zm-4-7c-.55,0-1,.45-1,1v4c0,.55,.45,1,1,1h4c.55,0,1-.45,1-1v-4c0-.55-.45-1-1-1h-4Z"/></svg>