<?xml version="1.0" encoding="UTF-8"?><svg id="a" xmlns="http://www.w3.org/2000/svg" viewBox="0 0 24 24"><defs><style>.b{fill:#333;}</style></defs><path class="b" d="M12,2C6.49,2,2,6.49,2,12s4.49,10,10,10,10-4.49,10-10S17.51,2,12,2Zm0,19c-4.96,0-9-4.04-9-9S7.04,3,12,3s9,4.04,9,9-4.04,9-9,9Z"/><path class="b" d="M18.93,9.13c-.38-.91-.93-1.73-1.63-2.43s-1.52-1.25-2.43-1.63c-.92-.38-1.88-.57-2.87-.57-.28,0-.5,.22-.5,.5s.22,.5,.5,.5c.86,0,1.69,.17,2.49,.49,.79,.33,1.5,.8,2.11,1.41s1.08,1.32,1.41,2.11c.33,.79,.49,1.63,.49,2.49s-.17,1.69-.49,2.49c-.33,.79-.8,1.5-1.41,2.11s-1.32,1.08-2.11,1.41c-.79,.33-1.63,.49-2.49,.49-.28,0-.5,.22-.5,.5s.22,.5,.5,.5c.99,0,1.96-.19,2.87-.57,.91-.38,1.73-.93,2.43-1.63s1.25-1.52,1.63-2.43c.38-.92,.57-1.88,.57-2.87s-.19-1.96-.57-2.87Z"/><path class="b" d="M11.5,15.5c0,.28,.22,.5,.5,.5s.5-.22,.5-.5v-2.65c.29-.17,.5-.48,.5-.85s-.21-.67-.5-.85v-3.9c0-.28-.22-.5-.5-.5s-.5,.22-.5,.5v3.9c-.29,.17-.5,.48-.5,.85s.21,.67,.5,.85v2.65Z"/><path class="b" d="M7.35,6.65c-.2-.2-.51-.2-.71,0s-.2,.51,0,.71l1,1c.1,.1,.23,.15,.35,.15s.26-.05,.35-.15c.2-.2,.2-.51,0-.71l-1-1Z"/><path class="b" d="M7.65,15.65l-1,1c-.2,.2-.2,.51,0,.71,.1,.1,.23,.15,.35,.15s.26-.05,.35-.15l1-1c.2-.2,.2-.51,0-.71s-.51-.2-.71,0Z"/><path class="b" d="M7,12c0-.28-.22-.5-.5-.5h-1.5c-.28,0-.5,.22-.5,.5s.22,.5,.5,.5h1.5c.28,0,.5-.22,.5-.5Z"/></svg>