<?xml version="1.0" encoding="UTF-8"?><svg id="a" xmlns="http://www.w3.org/2000/svg" viewBox="0 0 24 24"><defs><style>.b{fill:#333;}</style></defs><path class="b" d="M20.85,13h-4.98l-.23-.22-1.84-2.3c-.15-.18-.17-.43-.07-.64,.1-.21,.31-.34,.54-.34h4.98l.23,.23,1.84,2.3c.15,.18,.17,.43,.07,.64-.1,.21-.31,.34-.54,.34Zm-4.55-1h3.72l-1.2-1.5h-3.72l1.2,1.5Z"/><path class="b" d="M12.01,13H3.26c-.23,0-.44-.13-.54-.34-.1-.21-.07-.45,.07-.63l2-2.49,.32-.04H13.85c.23,0,.44,.13,.54,.34,.1,.21,.07,.45-.07,.63l-1.99,2.49-.32,.04Zm-7.91-1h7.72l1.2-1.5H5.29l-1.2,1.5Z"/><path class="b" d="M14.05,21.5c-.28,0-.5-.22-.5-.5V10c0-.28,.22-.5,.5-.5s.5,.22,.5,.5v11c0,.28-.22,.5-.5,.5Z"/><path class="b" d="M16.47,21.5H7.63c-.28,0-.53-.2-.59-.47l-1.98-8.41c-.06-.27,.1-.54,.37-.6,.27-.06,.54,.1,.6,.37l1.91,8.11h8.21l1.91-8.11c.06-.27,.33-.43,.6-.37,.27,.06,.44,.33,.37,.6l-1.98,8.42c-.06,.26-.3,.46-.58,.46Zm-.39-.7v0Zm-8.07,0h0Z"/><path class="b" d="M18.05,10.5c-.28,0-.5-.22-.5-.5v-.5c0-2.21-1.79-4-4-4-.93,0-1.83,.32-2.54,.91-.21,.17-.53,.15-.7-.07-.18-.21-.15-.53,.07-.7,.89-.74,2.02-1.14,3.18-1.14,2.76,0,5,2.24,5,5v.5c0,.28-.22,.5-.5,.5Z"/><path class="b" d="M16.05,10c-.28,0-.5-.22-.5-.5,0-1.1-.9-2-2-2-.31,0-.62,.07-.89,.21-.25,.12-.55,.02-.67-.22-.12-.25-.02-.55,.22-.67,.41-.21,.88-.32,1.34-.32,1.65,0,3,1.35,3,3,0,.28-.22,.5-.5,.5Z"/><path class="b" d="M12.96,10.5H6.15c-.33,0-.6-.27-.6-.6v-.4c0-2.21,1.79-4,4-4s4,1.79,4,4v.4c0,.33-.27,.6-.6,.6Zm-6.4-1h6c0-1.65-1.35-3-3-3s-3,1.35-3,3Z"/><path class="b" d="M11.05,10c-.28,0-.5-.22-.5-.5,0-.55-.45-1-1-1s-1,.45-1,1c0,.28-.22,.5-.5,.5s-.5-.22-.5-.5c0-1.1,.9-2,2-2s2,.9,2,2c0,.28-.22,.5-.5,.5Z"/><path class="b" d="M7.55,7c-.13,0-.26-.05-.35-.15L3.7,3.35c-.2-.2-.2-.51,0-.71s.51-.2,.71,0l3.5,3.5c.2,.2,.2,.51,0,.71-.1,.1-.23,.15-.35,.15Z"/><path class="b" d="M6.05,8.5c-.13,0-.26-.05-.35-.15l-3-3c-.2-.2-.2-.51,0-.71s.51-.2,.71,0l3,3c.2,.2,.2,.51,0,.71-.1,.1-.23,.15-.35,.15Z"/><path class="b" d="M11.05,16.5h-2c-.28,0-.5-.22-.5-.5s.22-.5,.5-.5h2c.28,0,.5,.22,.5,.5s-.22,.5-.5,.5Z"/><path class="b" d="M13.55,10c-.13,0-.26-.05-.35-.15-.2-.2-.2-.51,0-.71l1.5-1.5c.2-.2,.51-.2,.71,0s.2,.51,0,.71l-1.5,1.5c-.1,.1-.23,.15-.35,.15Z"/></svg>