<svg width="101" height="101" viewBox="0 0 101 101" fill="none" xmlns="http://www.w3.org/2000/svg">
<circle cx="50.4994" cy="50.4994" r="43.6136" fill="#00CCBD"/>
<path d="M17.7809 51.1343C17.8113 51.2262 17.8609 51.2989 17.9055 51.3644C17.932 51.4032 17.9568 51.4396 17.9748 51.4759C17.999 51.5003 18.0111 51.5247 18.0233 51.5491C18.0354 51.5735 18.0475 51.5979 18.0717 51.6223C18.1202 51.6711 18.1687 51.7199 18.1687 51.7687C18.1872 51.7873 18.1986 51.806 18.2084 51.8219C18.2242 51.8477 18.2357 51.8663 18.2656 51.8663C19.0896 52.8423 20.1559 52.9887 21.5131 52.3055L22.2886 51.9151L23.5488 51.2319L28.3958 48.6456L29.6075 48.0113L35.3754 44.937L35.7147 44.7906L36.3448 44.449L28.929 49.1824L29.9468 50.8415L65.4267 29.4193L81.4072 19.7303C80.4601 18.7789 79.4693 17.8709 78.4381 17.0097L63.6818 26.589L43.5184 39.7156C43.6638 39.13 43.5668 38.4469 43.1306 37.6661L42.3551 36.2022L39.6892 31.0784C39.6588 30.9865 39.6093 30.9138 39.5646 30.8483C39.5382 30.8095 39.5134 30.7731 39.4954 30.7368C39.4954 30.7124 39.4832 30.7002 39.4711 30.688C39.459 30.6758 39.4469 30.6636 39.4469 30.6392C39.3984 30.5416 39.35 30.4928 39.253 30.3952L39.2045 30.3464C38.9137 29.956 38.526 29.7121 38.1382 29.5657L75.1289 14.5023C73.8489 13.6248 72.5197 12.8138 71.1463 12.0742L20.9314 34.543L21.6585 36.2998L31.5463 32.2495L28.3958 33.9087L27.9596 34.2015L15.5028 40.838C13.9033 41.7163 13.5156 42.9363 14.3396 44.5954L17.7809 51.1343Z" fill="black" fill-opacity="0.298"/>
<path d="M93.6086 43.8544L91.6488 43.6683L92.0366 40.1548L88.3044 39.6669L88.4013 38.2029L82.488 37.6173L82.1003 42.7899L79.9676 42.7411L80.3069 38.3981L74.3936 37.7637L74.1997 40.1548L70.9038 40.106L70.6614 36.495L64.7481 36.8366L65.0389 40.35L61.0644 40.7404L63.0517 54.2086H60.9675L66.5415 83.0482H79.529C88.4776 75.061 94.1117 63.4384 94.1117 50.4999C94.1117 48.2405 93.9398 46.0212 93.6086 43.8544Z" fill="black" fill-opacity="0.298"/>
<path d="M42.6697 93.413L42.8398 92.8566L45.1178 85.5369L56.7506 47.9625L15.939 62.2115L12.4977 63.3826L9.19629 64.5481C14.2281 79.3461 26.9893 90.5712 42.6697 93.413Z" fill="black" fill-opacity="0.298"/>
<path d="M30.3361 59.0882C32.1295 57.3802 33.2928 55.4283 33.9229 53.2324L14.2441 60.1129C16.2799 61.6257 18.6064 62.4552 21.3207 62.504C23.8896 62.6016 26.1677 62.016 28.2519 60.6985C28.9305 60.3081 29.6091 59.7225 30.3361 59.0882ZM42.6474 83.4383C42.9382 83.4383 43.1806 83.4383 43.3745 83.4383L50.4995 60.4057C48.4638 58.893 46.1372 58.1122 43.4229 58.0146C39.9331 57.917 36.928 59.0394 34.4076 61.4305C31.8387 63.8216 30.4815 66.7982 30.3846 70.3117C30.2876 73.8251 31.4024 76.8506 33.8259 79.4369C36.2009 81.9744 39.1576 83.3407 42.6474 83.4383Z" fill="white"/>
<path d="M14.1962 60.1133L10.7549 61.2844C12.8391 67.3353 16.232 72.8983 20.9335 77.9245C26.7499 84.1706 33.4872 88.4649 41.097 90.7584L43.375 83.4387C43.1327 83.4387 42.8903 83.4387 42.648 83.4387C39.1582 83.3411 36.25 81.9747 33.8265 79.4372C31.403 76.8509 30.2882 73.8255 30.3851 70.312C30.4821 66.7986 31.8392 63.8707 34.4081 61.4308C36.977 59.0397 39.9822 57.8685 43.4235 58.0149C46.0893 58.1125 48.4644 58.8933 50.5001 60.406L55.0078 45.8643L33.875 53.2327C33.2933 55.4774 32.0816 57.4294 30.2882 59.0885C29.6096 59.7229 28.8826 60.2597 28.1555 60.7476C26.1198 62.0164 23.7932 62.6019 21.2244 62.5532C18.5585 62.4556 16.232 61.626 14.1962 60.1133Z" fill="#FB5058"/>
<path d="M10.7544 61.333L3.29004 63.9681C5.71353 71.0438 9.68805 77.5339 15.2136 83.4385C22.0478 90.7582 29.8515 95.7355 38.7699 98.4194L41.0965 90.8069C33.4867 88.5134 26.7979 84.268 20.933 77.9731C16.2315 72.8981 12.8386 67.384 10.7544 61.333Z" fill="#FF9966"/>
<path d="M21.9023 59.3808C20.9329 60.3079 20.3998 61.4791 20.3513 62.8454C20.3028 64.2118 20.739 65.3829 21.66 66.4077C22.5809 67.4324 23.7442 67.9692 25.1013 68.018C26.4585 68.0668 27.6218 67.5788 28.6396 66.6517C29.609 65.7245 30.1422 64.5534 30.1907 63.187C30.2391 61.8207 29.8029 60.6495 28.882 59.6248C27.961 58.6488 26.7978 58.112 25.4406 58.0632C24.0835 58.0144 22.9202 58.4536 21.9023 59.3808Z" fill="black" fill-opacity="0.298"/>
<path d="M20.9335 77.9735C26.7984 84.2196 33.2449 88.5138 41.1454 90.8073L41.8725 88.4162C34.6989 86.2203 28.3494 82.1701 22.8239 76.2167C18.3646 71.3857 15.1656 66.1156 13.1784 60.3574L10.7549 61.2358C12.9845 67.1403 16.232 72.9473 20.9335 77.9735Z" fill="black" fill-opacity="0.298"/>
<path d="M13.7593 38.7396C12.1598 39.6179 11.772 40.8379 12.596 42.497L16.0374 49.0359C16.9098 50.6462 18.1216 51.0366 19.7695 50.2071L40.2722 39.2763C41.8717 38.398 42.2595 37.178 41.4355 35.5189L37.9942 28.98C37.1217 27.3696 35.91 26.9793 34.262 27.8088L13.7593 38.7396Z" fill="#FF5863"/>
<path d="M40.6598 34.1038L38.721 40.1059L39.9812 39.4227L41.3384 35.2749L40.6598 34.1038ZM26.6036 46.5472L27.8153 45.9129L33.4863 28.248L32.2745 28.8824L26.6036 46.5472ZM32.6623 43.3266L33.9225 42.6434L38.1878 29.3216L37.9939 28.9312C37.8485 28.6384 37.7031 28.3944 37.5093 28.1992L32.6623 43.3266ZM15.8433 48.6943L16.0372 49.0359C16.1826 49.3287 16.328 49.5727 16.5219 49.7679L21.4173 34.6893L20.1571 35.3725L15.8433 48.6943ZM13.3713 43.9121L15.3101 37.91L14.0499 38.5932L12.7412 42.6922L13.3713 43.9121ZM27.476 31.4687L26.2158 32.1518L20.4964 49.8167L21.7566 49.1335L27.476 31.4687Z" fill="white"/>
<path d="M80.2598 5.11778L81.8108 9.02162L86.9001 6.9233L85.3006 2.92188L80.2598 5.11778Z" fill="#FF5863"/>
<path d="M56.9463 15.5121L58.2065 18.5864L81.8113 8.97317L80.2602 5.06934L56.9463 15.5121Z" fill="#067F8A"/>
<path d="M19.1885 32.4934L19.9155 34.2501L58.2551 18.586L56.9949 15.5117L19.1885 32.4934Z" fill="#067F8A"/>
<path d="M77.7882 60.3082C80.1633 60.3082 82.102 59.4787 83.7985 57.8196C85.398 56.2092 86.2704 54.2573 86.3189 52.0126L69.3545 51.8662C69.3545 54.1597 70.1785 56.2092 71.8749 57.8196C73.4744 59.4299 75.4132 60.3082 77.7882 60.3082Z" fill="#9C006D"/>
<path d="M69.8389 59.3808L68.094 34.1035L62.1807 34.4451L64.1195 59.4784L69.8389 59.3808Z" fill="#FF9966"/>
<path d="M73.9104 39.8131L67.9971 39.2275L66.1553 64.1633L71.9232 65.0904L73.9104 39.8131Z" fill="#FF9966"/>
<path d="M77.6907 35.9576L71.7774 35.3721L69.9355 60.3078L75.7034 61.235L77.6907 35.9576Z" fill="#FF9966"/>
<path d="M81.5198 43.1803L75.7034 42.5947L73.7646 67.5305L79.5325 68.4576L81.5198 43.1803Z" fill="#FF9966"/>
<path d="M85.8343 35.8121L79.921 35.2266L78.0791 60.1623L83.847 61.0895L85.8343 35.8121Z" fill="#FF9966"/>
<path d="M92.4261 41.57L86.5128 40.9844L84.6709 65.9201L90.4388 66.8473L92.4261 41.57Z" fill="#FF9966"/>
<path d="M69.8389 59.3808L68.094 34.1035L62.1807 34.4451L64.1195 59.4784L69.8389 59.3808Z" fill="black" fill-opacity="0.298"/>
<path d="M77.6907 35.9576L71.7774 35.3721L69.9355 60.3078L75.7034 61.235L77.6907 35.9576Z" fill="black" fill-opacity="0.298"/>
<path d="M85.8343 35.8121L79.921 35.2266L78.0791 60.1623L83.847 61.0895L85.8343 35.8121Z" fill="black" fill-opacity="0.298"/>
<path d="M92.4261 41.57L86.5128 40.9844L84.6709 65.9201L90.4388 66.8473L92.4261 41.57Z" fill="black" fill-opacity="0.298"/>
<path d="M64.1192 37.7637L58.4482 38.3492L62.1804 63.041L67.9968 62.0162L64.1192 37.7637Z" fill="#FABE00"/>
<path d="M79.8235 40.3983L73.9102 40.252V65.2853L79.7265 65.7733L79.8235 40.3983Z" fill="#FABE00"/>
<path d="M89.4696 37.7641L82.2961 36.8369L80.5996 61.9191L86.7068 62.6022L89.4696 37.7641Z" fill="#FABE00"/>
<path d="M96.9816 40.3987L92.0861 39.2275L87.0938 63.7241L92.8616 65.3344L96.9816 40.3987Z" fill="#FABE00"/>
<path d="M73.135 37.7636L67.2217 37.666V62.6994L72.9896 63.1873L73.135 37.7636Z" fill="#FABE00"/>
<path d="M60.0967 49.8163L63.3926 78.4607L90.7781 78.6559L95.4311 50.0603L84.9132 49.8651C84.8163 52.0611 84.0892 54.013 82.7321 55.6721C81.278 57.38 79.5815 58.1608 77.4973 58.1608C75.4616 58.1608 73.7652 57.3312 72.2626 55.6721C70.857 54.0618 70.1299 52.0123 70.0814 49.7188L60.0967 49.8163Z" fill="black" fill-opacity="0.298"/>
<path d="M58.3516 51.7686L63.9256 80.6081H91.8926L95.7702 52.1101L86.2217 52.0125C86.1247 54.2084 85.3008 56.1604 83.7013 57.8195C82.0048 59.5274 80.066 60.3082 77.691 60.3082C75.316 60.3082 73.3772 59.4786 71.6807 57.8195C70.0812 56.2092 69.2088 54.1597 69.1603 51.8662L58.3516 51.7686Z" fill="#067F8A"/>
<path d="M21.999 71.9218C21.999 80.3638 25.8766 83.6821 33.6802 81.9253C33.9711 73.1417 30.0935 69.8235 21.999 71.9218Z" fill="black" fill-opacity="0.298"/>
<path d="M43.0833 66.6524L39.1573 62.651C37.7517 61.2359 36.0552 60.5039 34.068 60.5039C32.1292 60.5039 30.4812 61.1383 29.0756 62.407C29.0271 62.4558 29.0271 62.4558 28.9786 62.5046C28.8817 62.5534 28.8332 62.6022 28.7848 62.6998C27.4761 64.0662 26.7975 65.7253 26.749 67.6284C26.749 69.6291 27.4276 71.337 28.8332 72.7522L32.7593 76.7536C34.1649 78.2176 35.8129 78.9495 37.8001 78.9495C39.7874 78.9983 41.4838 78.3151 42.8895 76.9C42.9379 76.8512 43.0349 76.7536 43.0833 76.656C44.3435 75.2897 45.0221 73.6793 45.0706 71.7762C45.1675 69.8243 44.489 68.1164 43.0833 66.6524Z" fill="black" fill-opacity="0.298"/>
<path d="M21.999 73.3375C21.999 81.7796 25.8766 85.0978 33.6802 83.3411C33.9711 74.6063 30.0935 71.288 21.999 73.3375Z" fill="#067F8A"/>
<path d="M21.9023 60.8446C20.9329 61.7718 20.3998 62.9429 20.3513 64.3093C20.3028 65.6756 20.739 66.8468 21.66 67.8715C22.5809 68.8963 23.7442 69.4331 25.1013 69.4819C26.4585 69.5307 27.6218 69.0427 28.6396 68.1155C29.609 67.1884 30.1422 66.0172 30.1907 64.6509C30.2391 63.2845 29.8029 62.1134 28.882 61.0886C27.961 60.1127 26.7978 59.5759 25.4406 59.5271C24.0835 59.4783 22.9202 59.9175 21.9023 60.8446Z" fill="#50106E"/>
<path d="M28.4461 73.9231L32.3722 77.9245C33.7778 79.3884 35.4258 80.1204 37.4131 80.1204C39.4003 80.1692 41.0968 79.486 42.5024 78.0709C42.5508 78.0221 42.6478 77.9245 42.6963 77.8269C43.9565 76.4606 44.635 74.8502 44.6835 72.9471C44.732 70.9464 44.0534 69.1897 42.6478 67.7745L38.7217 63.7731C37.3161 62.358 35.6197 61.626 33.6324 61.626C31.6936 61.626 30.0456 62.2604 28.64 63.5291C28.5916 63.5779 28.5916 63.5779 28.5431 63.6267C28.4461 63.6755 28.3977 63.7243 28.3492 63.8219C27.0405 65.1882 26.3619 66.8474 26.3135 68.7505C26.3619 70.8 27.089 72.5079 28.4461 73.9231ZM37.4131 78.0709C36.0074 78.0709 34.7957 77.5341 33.8263 76.4606L29.9002 72.4591C28.8824 71.4344 28.3977 70.2144 28.3977 68.7993C28.3977 67.6769 28.737 66.7498 29.3186 65.8714L40.3212 77.2413C39.4488 77.8269 38.4794 78.1197 37.4131 78.0709ZM42.6478 72.9471C42.6478 74.0207 42.3085 74.9478 41.7269 75.7774L30.7727 64.5051C31.5967 63.9683 32.5661 63.6755 33.6324 63.6755C35.038 63.6755 36.2498 64.2123 37.2676 65.237L41.1937 69.2385C42.1631 70.2632 42.6478 71.4832 42.6478 72.9471Z" fill="#FB5058"/>
<path d="M41.7263 75.7767C42.3079 74.9471 42.5987 74.02 42.6472 72.9464C42.6957 71.4825 42.211 70.2625 41.1931 69.2378L37.2671 65.2363C36.2492 64.2116 35.0375 63.7236 33.6318 63.6748C32.5655 63.6748 31.5961 63.9188 30.7721 64.5044L41.7263 75.7767ZM33.7772 76.5087C34.7951 77.5334 35.9584 78.0702 37.364 78.119C38.4303 78.119 39.4482 77.8262 40.2722 77.2894L29.2696 65.9195C28.6879 66.7491 28.3486 67.725 28.3486 68.8474C28.3486 70.2625 28.8333 71.4825 29.8512 72.5072L33.7772 76.5087Z" fill="#9C006D"/>
<path fill-rule="evenodd" clip-rule="evenodd" d="M34.02 66.847C33.7777 66.603 33.6807 66.359 33.6807 66.0174C33.6807 65.6758 33.7777 65.383 34.02 65.2366C34.2139 64.9926 34.5047 64.895 34.844 64.9438C35.1348 64.895 35.3772 64.9926 35.6195 65.2366C35.8619 65.4806 35.9588 65.7734 35.9588 66.115C35.9588 66.4078 35.8619 66.7006 35.6195 66.8958C35.4256 67.091 35.1348 67.2373 34.844 67.2373C34.5047 67.2373 34.2139 67.091 34.02 66.847ZM31.0148 71.5315C31.3541 71.5315 31.5965 71.3852 31.8388 71.19C32.0812 70.946 32.1781 70.6532 32.1781 70.3604C32.1781 70.0676 32.0812 69.7748 31.8388 69.5308C31.6449 69.2868 31.3541 69.1892 31.0148 69.1892C30.6756 69.1892 30.4332 69.2868 30.1908 69.5308C29.9485 69.7748 29.8516 70.0188 29.8516 70.3604C29.8516 70.6532 29.9485 70.946 30.1908 71.19C30.3847 71.3852 30.6756 71.5315 31.0148 71.5315ZM32.4205 74.0691C32.1782 73.8739 32.0812 73.6299 32.0812 73.2883C32.0812 72.9467 32.2266 72.6539 32.469 72.4588C32.6629 72.2148 32.9537 72.1172 33.293 72.166C33.5838 72.1172 33.8746 72.2148 34.117 72.4588C34.3108 72.7027 34.4563 72.9467 34.4563 73.2883C34.4563 73.5811 34.3108 73.8739 34.0685 74.1179C33.8746 74.3131 33.5838 74.4594 33.2445 74.4594C32.9052 74.4594 32.6629 74.3131 32.4205 74.0691ZM35.571 76.5577C35.3287 76.3138 35.2317 76.021 35.2317 75.6794C35.2317 75.3378 35.3772 75.045 35.6195 74.801C35.8618 74.6058 36.1042 74.4594 36.4435 74.4594C36.7343 74.4594 37.0251 74.6058 37.2675 74.8498C37.5098 75.0938 37.6068 75.3378 37.6068 75.6794C37.6068 76.021 37.4613 76.3138 37.219 76.5089C36.9767 76.7529 36.7343 76.8505 36.395 76.8505C36.0557 76.8505 35.8134 76.7529 35.571 76.5577ZM36.8312 68.8477C36.8312 69.1405 36.9282 69.4332 37.1705 69.6772C37.4129 69.9212 37.7037 70.0188 37.9945 70.0188C38.3338 70.0188 38.5761 69.8724 38.8185 69.6772C39.0608 69.4332 39.1578 69.1892 39.1578 68.8477C39.1578 68.5549 39.0608 68.2621 38.8185 68.0181C38.5761 67.8229 38.3338 67.7253 37.9945 67.7253C37.6552 67.6765 37.3644 67.7741 37.1705 68.0181C36.9282 68.2133 36.8312 68.5061 36.8312 68.8477ZM39.4971 72.4099C39.2547 72.2147 39.1578 71.922 39.1578 71.6292C39.1093 71.2876 39.2063 71.0436 39.4486 70.7996C39.691 70.5556 39.9818 70.458 40.3211 70.458C40.6119 70.458 40.9027 70.5556 41.0966 70.7996C41.3389 71.0436 41.4844 71.3364 41.4844 71.678C41.4844 71.9708 41.3389 72.2148 41.0966 72.4587C40.9027 72.6539 40.6119 72.8003 40.3211 72.8003C39.9818 72.8003 39.691 72.6539 39.4971 72.4099Z" fill="#FABE00"/>
<path d="M85.495 14.1454L90.245 11.3151L87.9669 7.60645L83.3623 10.6319L85.495 14.1454Z" fill="#FF5863"/>
<path d="M61.9385 24.4904L63.6349 27.3207L85.4463 14.0964L83.3136 10.5342L61.9385 24.4904Z" fill="#067F8A"/>
<path d="M27.1855 47.0837L28.2034 48.7428L63.6833 27.3205L61.9868 24.4902L27.1855 47.0837Z" fill="#067F8A"/>
<path opacity="0.48" d="M93.7836 52.1104L86.1738 80.6083H91.8933L95.8193 52.1104H93.7836Z" fill="black" fill-opacity="0.298"/>
</svg>
