<?xml version="1.0" encoding="UTF-8"?><svg id="a" xmlns="http://www.w3.org/2000/svg" viewBox="0 0 24 24"><defs><style>.b{fill:#333;}</style></defs><path class="b" d="M15.5,2h-7c-1.93,0-3.5,1.57-3.5,3.5v15.9c0,.33,.27,.6,.6,.6h6.4c.55,0,1-.45,1-1V10.5h5c.55,0,1-.45,1-1V5.5c0-1.93-1.57-3.5-3.5-3.5Zm-3.5,19H6v-1h2.5c.28,0,.5-.22,.5-.5s-.22-.5-.5-.5h-2.5V5.5c0-1.38,1.12-2.5,2.5-2.5h4.56c-.54,.52-.9,1.22-1.01,2h-1.05c-.28,0-.5,.22-.5,.5s.22,.5,.5,.5h1v15Zm6-11.5h-5V5.5c0-1.38,1.12-2.5,2.5-2.5s2.5,1.12,2.5,2.5v4Z"/><path class="b" d="M9.65,11.15l-1.15,1.15-.15-.15c-.2-.2-.51-.2-.71,0-.2,.2-.2,.51,0,.71l.43,.43,.22,.18h.21l.28-.03,1.58-1.58c.2-.2,.2-.51,0-.71s-.51-.2-.71,0Z"/><path class="b" d="M9.65,7.15l-1.15,1.15-.15-.15c-.2-.2-.51-.2-.71,0-.2,.2-.2,.51,0,.71l.43,.43,.22,.18h.21l.28-.03,1.58-1.58c.2-.2,.2-.51,0-.71s-.51-.2-.71,0Z"/><path class="b" d="M9.65,15.15l-1.15,1.15-.15-.15c-.2-.2-.51-.2-.71,0-.2,.2-.2,.51,0,.71l.43,.43,.22,.18h.21l.28-.03,1.58-1.58c.2-.2,.2-.51,0-.71s-.51-.2-.71,0Z"/></svg>