<?xml version="1.0" encoding="UTF-8"?><svg id="a" xmlns="http://www.w3.org/2000/svg" viewBox="0 0 24 24"><defs><style>.b{fill:#333;}</style></defs><path class="b" d="M12,22.5c-5.51,0-10-4.49-10-10S6.49,2.5,12,2.5s10,4.49,10,10-4.49,10-10,10Zm0-19C7.04,3.5,3,7.54,3,12.5s4.04,9,9,9,9-4.04,9-9S16.96,3.5,12,3.5Z"/><path class="b" d="M16.95,17.95c-.13,0-.26-.05-.35-.15-.2-.2-.2-.51,0-.71,.61-.61,1.08-1.32,1.41-2.11,.33-.79,.5-1.63,.5-2.49s-.17-1.7-.5-2.49c-.33-.79-.8-1.5-1.41-2.11s-1.32-1.08-2.11-1.41c-.79-.33-1.63-.49-2.49-.49-.28,0-.5-.22-.5-.5s.22-.5,.5-.5c.99,0,1.96,.19,2.87,.57s1.73,.93,2.43,1.63c.7,.7,1.25,1.52,1.63,2.43,.38,.91,.57,1.88,.57,2.87s-.19,1.96-.57,2.87c-.38,.91-.93,1.73-1.63,2.43-.1,.1-.23,.15-.35,.15Z"/><path class="b" d="M14.5,15.5c-.13,0-.26-.05-.35-.15l-2.62-2.62-.03-.28V7.75c0-.28,.22-.5,.5-.5s.5,.22,.5,.5v4.54l2.35,2.35c.2,.2,.2,.51,0,.71-.1,.1-.23,.15-.35,.15Z"/><path class="b" d="M8,9c-.13,0-.26-.05-.35-.15l-1-1c-.2-.2-.2-.51,0-.71s.51-.2,.71,0l1,1c.2,.2,.2,.51,0,.71-.1,.1-.23,.15-.35,.15Z"/><path class="b" d="M7,18c-.13,0-.26-.05-.35-.15-.2-.2-.2-.51,0-.71l1-1c.2-.2,.51-.2,.71,0s.2,.51,0,.71l-1,1c-.1,.1-.23,.15-.35,.15Z"/><path class="b" d="M6.5,13h-1.5c-.28,0-.5-.22-.5-.5s.22-.5,.5-.5h1.5c.28,0,.5,.22,.5,.5s-.22,.5-.5,.5Z"/><path class="b" d="M12,20c-.28,0-.5-.22-.5-.5v-1.5c0-.28,.22-.5,.5-.5s.5,.22,.5,.5v1.5c0,.28-.22,.5-.5,.5Z"/><circle class="b" cx="12" cy="12.5" r="1"/></svg>