<svg width="103" height="103" viewBox="0 0 103 103" fill="none" xmlns="http://www.w3.org/2000/svg">
<path fill-rule="evenodd" clip-rule="evenodd" d="M95.977 51.4706C95.977 39.2016 91.6422 28.7163 82.975 20.0161C74.3067 11.3534 63.8157 7.02271 51.4997 7.02271C39.2237 7.02271 28.7504 11.3534 20.0832 20.0161C11.376 28.7163 7.02246 39.2016 7.02246 51.4706C7.02246 63.7384 11.376 74.2237 20.0832 82.9251C28.7504 91.6254 39.2237 95.9772 51.4997 95.9772C63.8157 95.9772 74.3067 91.6254 82.975 82.9251C91.6422 74.2237 95.977 63.7384 95.977 51.4706Z" fill="#067F8A"/>
<path d="M48.5 55H19L77 8.5L52 44H78.5L23.5 94L48.5 55Z" fill="white"/>
<path d="M54 55H26L77.23 8L54 44H80.5L23 94.5L54 55Z" fill="#FABE00"/>
</svg>
