<?xml version="1.0" encoding="UTF-8"?><svg id="a" xmlns="http://www.w3.org/2000/svg" viewBox="0 0 24 24"><defs><style>.b{fill:#333;}</style></defs><path class="b" d="M12,22c-5.51,0-10-4.49-10-10S6.49,2,12,2s10,4.49,10,10-4.49,10-10,10Zm0-19C7.04,3,3,7.04,3,12s4.04,9,9,9,9-4.04,9-9S16.96,3,12,3Z"/><path class="b" d="M12,22c-.54,0-1.06-.26-1.56-.79-.48-.5-.9-1.22-1.27-2.14-.76-1.89-1.17-4.4-1.17-7.07s.42-5.18,1.17-7.07c.37-.92,.79-1.64,1.27-2.14,.99-1.04,2.13-1.04,3.12,0,.48,.5,.9,1.22,1.27,2.14,.06,.16,.12,.32,.18,.48l-.94,.33c-.05-.15-.11-.3-.17-.44-.32-.79-.69-1.42-1.07-1.83-.2-.22-.51-.47-.83-.47s-.63,.26-.83,.47c-.38,.41-.75,1.04-1.07,1.83-.71,1.77-1.1,4.15-1.1,6.7s.39,4.93,1.1,6.7c.32,.79,.69,1.42,1.07,1.83,.2,.22,.51,.47,.83,.47s.63-.26,.83-.47c.38-.41,.75-1.04,1.07-1.83,.71-1.77,1.1-4.15,1.1-6.7,0-1.19-.09-2.35-.25-3.44l.99-.15c.18,1.15,.27,2.35,.27,3.6,0,2.67-.42,5.18-1.17,7.07-.37,.92-.79,1.64-1.27,2.14-.49,.52-1.02,.79-1.56,.79Z"/><path class="b" d="M21.5,12.5H6.5c-.28,0-.5-.22-.5-.5s.22-.5,.5-.5h15c.28,0,.5,.22,.5,.5s-.22,.5-.5,.5Z"/><path class="b" d="M3.5,12.5h-1c-.28,0-.5-.22-.5-.5s.22-.5,.5-.5h1c.28,0,.5,.22,.5,.5s-.22,.5-.5,.5Z"/><path class="b" d="M20,7.5h-3.5c-.28,0-.5-.22-.5-.5s.22-.5,.5-.5h3.5c.28,0,.5,.22,.5,.5s-.22,.5-.5,.5Z"/><path class="b" d="M13.5,7.5H4c-.28,0-.5-.22-.5-.5s.22-.5,.5-.5H13.5c.28,0,.5,.22,.5,.5s-.22,.5-.5,.5Z"/><path class="b" d="M20,17.5h-6.5c-.28,0-.5-.22-.5-.5s.22-.5,.5-.5h6.5c.28,0,.5,.22,.5,.5s-.22,.5-.5,.5Z"/><path class="b" d="M10.5,17.5H4c-.28,0-.5-.22-.5-.5s.22-.5,.5-.5h6.5c.28,0,.5,.22,.5,.5s-.22,.5-.5,.5Z"/><path class="b" d="M5,14c-1.1,0-2-.9-2-2s.9-2,2-2,2,.9,2,2-.9,2-2,2Zm0-3c-.55,0-1,.45-1,1s.45,1,1,1,1-.45,1-1-.45-1-1-1Z"/><path class="b" d="M12,19c-1.1,0-2-.9-2-2s.9-2,2-2,2,.9,2,2-.9,2-2,2Zm0-3c-.55,0-1,.45-1,1s.45,1,1,1,1-.45,1-1-.45-1-1-1Z"/><path class="b" d="M15,9c-1.1,0-2-.9-2-2s.9-2,2-2,2,.9,2,2-.9,2-2,2Zm0-3c-.55,0-1,.45-1,1s.45,1,1,1,1-.45,1-1-.45-1-1-1Z"/></svg>