<?xml version="1.0" encoding="UTF-8"?><svg id="a" xmlns="http://www.w3.org/2000/svg" viewBox="0 0 24 24"><defs><style>.b{fill:#333;}</style></defs><path class="b" d="M12,5c.28,0,.5-.22,.5-.5v-1.5c0-.28-.22-.5-.5-.5s-.5,.22-.5,.5v1.5c0,.28,.22,.5,.5,.5Z"/><path class="b" d="M6.65,6.85c.1,.1,.23,.15,.35,.15s.26-.05,.35-.15c.2-.2,.2-.51,0-.71l-1-1c-.2-.2-.51-.2-.71,0s-.2,.51,0,.71l1,1Z"/><path class="b" d="M17,7c.13,0,.26-.05,.35-.15l1-1c.2-.2,.2-.51,0-.71s-.51-.2-.71,0l-1,1c-.2,.2-.2,.51,0,.71,.1,.1,.23,.15,.35,.15Z"/><path class="b" d="M20.5,20.5h-1.5V8.5H6c-.55,0-1,.45-1,1v11h-1.5c-.28,0-.5,.22-.5,.5s.22,.5,.5,.5H20.5c.28,0,.5-.22,.5-.5s-.22-.5-.5-.5ZM12,9.5h4v.5c0,.28-.22,.5-.5,.5h-3c-.28,0-.5-.22-.5-.5v-.5Zm-4.5,10.21l.79,.79h-1.59l.79-.79Zm.65-.77c-.09-.09-.15-.22-.15-.35V9.5h1v10.29l-.85-.85Zm-1.15-9.44v9.09c0,.13-.05,.26-.15,.35l-.85,.85V9.5h1Zm4,11h-1V9.5h1v.5c0,.83,.67,1.5,1.5,1.5h3c.83,0,1.5-.67,1.5-1.5v-.5h1v11h-7Z"/><path class="b" d="M14.87,15.17l-.45-2.06-1.4,.29,.45,2.06-2.02,.42,.36,1.64,3.56,.74,.81-1.79,.39-3.6-1.42-.15-.27,2.44Zm-.86,1.11c-.06,.06-.15,.06-.27,.02-.05-.01-.09-.05-.11-.1-.02-.06-.02-.12,0-.2,.02-.08,.1-.12,.24-.13,.02,0,.05,0,.07,.01,.09,.04,.14,.08,.15,.14,.03,.1,0,.19-.07,.25Zm1.03,.11s-.07,.07-.13,.08c-.06,0-.13,0-.2-.04-.07-.03-.1-.11-.08-.22,0-.04,.02-.08,.05-.11,.05-.07,.1-.1,.15-.1,.11,0,.19,.04,.24,.13,.04,.07,.03,.16-.03,.27Z"/></svg>