<?xml version="1.0" encoding="UTF-8"?><svg id="a" xmlns="http://www.w3.org/2000/svg" viewBox="0 0 24 24"><defs><style>.b{fill:#333;}</style></defs><path class="b" d="M18.75,12.85h-5c-1.38,0-2.5,1.12-2.5,2.5v2c0,1.38,1.12,2.5,2.5,2.5h5.42l1.04,1.11c.12,.12,.28,.19,.44,.19,.07,0,.15-.01,.22-.04,.23-.09,.38-.31,.38-.56v-5.21c0-1.38-1.12-2.5-2.5-2.5Zm1.5,6.69l-.68-.69h-5.82c-.83,0-1.5-.67-1.5-1.5v-2c0-.83,.67-1.5,1.5-1.5h5c.83,0,1.5,.67,1.5,1.5v4.19Z"/><path class="b" d="M15.25,15.85h-1c-.28,0-.5,.22-.5,.5s.22,.5,.5,.5h1c.28,0,.5-.22,.5-.5s-.22-.5-.5-.5Z"/><path class="b" d="M16.75,8.26v-1.92c0-1.93-1.57-3.5-3.5-3.5H6.25c-1.93,0-3.5,1.57-3.5,3.5v6.75c0,.25,.15,.46,.38,.56,.07,.03,.15,.04,.22,.04,.16,0,.32-.06,.44-.19l1.65-1.74h7.81c1.93,0,3.5-1.57,3.5-3.5Zm-11.49,2.5l-.29,.03-1.23,1.3V6.35c0-1.38,1.12-2.5,2.5-2.5h7c1.38,0,2.5,1.12,2.5,2.5v1.92c0,1.38-1.12,2.5-2.5,2.5H5.26Z"/><path class="b" d="M10.75,6.85H6.25c-.28,0-.5,.22-.5,.5s.22,.5,.5,.5h4.5c.28,0,.5-.22,.5-.5s-.22-.5-.5-.5Z"/><path class="b" d="M13.75,7.35c0-.28-.22-.5-.5-.5h-.5c-.28,0-.5,.22-.5,.5s.22,.5,.5,.5h.5c.28,0,.5-.22,.5-.5Z"/></svg>