<?xml version="1.0" encoding="UTF-8"?><svg id="a" xmlns="http://www.w3.org/2000/svg" xmlns:xlink="http://www.w3.org/1999/xlink" viewBox="0 0 24 24"><defs><style>.d{mask:url(#b);}.e{fill:#fff;}.f{fill:#333;}</style><mask id="b" x="2.5" y="4" width="8" height="8" maskUnits="userSpaceOnUse"><g id="c"><rect class="e" x="2.5" y="4" width="7" height="7" rx=".5" ry=".5"/></g></mask></defs><path class="f" d="M18.5,10h-1.76c-.24,0-.46-.15-.55-.37s-.04-.48,.13-.65l1.33-1.33c.2-.2,.51-.2,.71,0s.2,.51,0,.71l-.65,.65h.79c.28,0,.5,.22,.5,.5s-.22,.5-.5,.5Zm-1.47-.32h0Z"/><g class="d"><path class="f" d="M9,12l-5.59-.97c-.83,0-.91,.29-.91-.53V4.5c-.01-.27,.18-.5,.5-.5h6c.83,0,1.5,.67,1.5,1.5v5c0,.83-.67,1.5-1.5,1.5Zm-5.5-2h5V5H3.5v5Z"/></g><path class="f" d="M11.5,11h-2.5c-.28,0-.5-.22-.5-.5s.22-.5,.5-.5h2.5c.28,0,.5,.22,.5,.5s-.22,.5-.5,.5Z"/><path class="f" d="M5,11c-.13,0-.26-.05-.35-.15-.2-.2-.2-.51,0-.71l2-2c.2-.2,.51-.2,.71,0s.2,.51,0,.71l-2,2c-.1,.1-.23,.15-.35,.15Z"/><path class="f" d="M6.5,7c-.13,0-.26-.05-.35-.15-.2-.2-.2-.51,0-.71l2-2c.2-.2,.51-.2,.71,0s.2,.51,0,.71l-2,2c-.1,.1-.23,.15-.35,.15Z"/><path class="f" d="M18.5,14c-.13,0-.25,.02-.37,.04l-2.13-7.11c-.08-.25-.31-.43-.58-.43h-1.93c-.28,0-.5,.22-.5,.5s.22,.5,.5,.5h1.63l2.05,6.82c-.84,.42-1.46,1.22-1.62,2.18h-4.18l-1.7-5.53c.19-.07,.33-.25,.33-.47,0-.28-.22-.5-.5-.5h-.5c-3.58,0-6.5,2.92-6.5,6.5v.5c0,.28,.22,.5,.5,.5h1.05c.24,1.42,1.47,2.5,2.95,2.5s2.71-1.08,2.95-2.5h5.6c.24,1.42,1.47,2.5,2.95,2.5,1.65,0,3-1.35,3-3s-1.35-3-3-3Zm-1.03,1.3l.36,1.2h-1.26c.13-.51,.46-.94,.9-1.2Zm-8.83-4.28l1.69,5.48H3.5c0-2.91,2.27-5.29,5.14-5.48Zm-1.64,7.98c-.93,0-1.71-.64-1.93-1.5h3.86c-.22,.86-1,1.5-1.93,1.5Zm11.5,0c-.93,0-1.71-.64-1.93-1.5h1.93c.28,0,.5-.22,.5-.5h0v-.03l-.57-1.96s.05,0,.08,0c1.1,0,2,.9,2,2s-.9,2-2,2Z"/></svg>